<?xml version="1.0" encoding="UTF-8"?>
<svg id="Capa_1" data-name="Capa 1" xmlns="http://www.w3.org/2000/svg" viewBox="0 0 32 32">
  <defs>
    <style>
      .cls-1 {
        fill: #fff;
      }
    </style>
  </defs>
  <path class="cls-1" d="m18.46,30.57H1.75V2.72h27.85v27.85h-7.12s-.1-.07-.15-.11c-.17-.13-.26-.31-.22-.52.04-.22.18-.38.4-.43.1-.02.22-.03.32-.03,1.8,0,3.59,0,5.39,0,.09,0,.19,0,.28,0v-9.67s-.08-.01-.12-.01c-2.75,0-5.49,0-8.24,0-.1,0-.21.07-.29.15-.28.27-.54.56-.83.82-.14.13-.2.25-.2.44,0,2.86,0,5.73,0,8.59,0,.34-.08.6-.39.77ZM12.53,3.82H2.85v9.65c.05,0,.1,0,.14,0,2.74,0,5.48,0,8.22,0,.1,0,.21-.07.29-.14.28-.27.54-.56.83-.82.14-.13.2-.24.2-.43,0-2.57,0-5.15,0-7.72v-.53ZM2.85,29.46h9.66c0-.05,0-.09,0-.13,0-2.74,0-5.48,0-8.21,0-.1-.08-.23-.16-.31-.27-.28-.56-.54-.82-.83-.12-.14-.24-.19-.42-.19-2.67,0-5.33,0-8,0h-.28v9.66ZM18.85,3.81c0,.05-.01.09-.01.12,0,2.75,0,5.49,0,8.24,0,.1.08.21.15.29.27.28.56.54.82.83.12.13.23.2.41.2,2.68,0,5.35,0,8.03,0,.09,0,.17,0,.26-.01V3.81h-9.66Zm1.07,12.84c.01-2.33-1.89-4.24-4.22-4.26-2.33-.01-4.25,1.88-4.27,4.21-.02,2.34,1.89,4.27,4.23,4.27,2.33,0,4.24-1.9,4.25-4.23Zm-2.19-12.84h-4.11v7.9c1.37-.54,2.74-.54,4.11,0V3.82Zm-6.98,10.77H2.86v4.1h7.9c-.54-1.38-.54-2.74,0-4.1Zm9.88-.01c.39,1.7.62,1.53,0,4.11h7.86v-4.11h-7.87Zm-2.9,14.89v-7.91c-1.38.54-2.74.54-4.11,0v7.9h4.11Z"/>
  <path class="cls-1" d="m20.46,30.57c-.33-.17-.46-.36-.42-.61.04-.25.25-.44.49-.47.23-.02.46.13.54.36.08.23,0,.47-.21.61-.06.04-.13.07-.19.1h-.22Z"/>
  <path class="cls-1" d="m12.84,16.65c0-1.61,1.33-2.94,2.94-2.94,1.61,0,2.94,1.33,2.93,2.95,0,1.6-1.33,2.92-2.93,2.93-1.61,0-2.95-1.32-2.95-2.93Zm4.79,0c0-1.01-.84-1.85-1.85-1.85-1,0-1.83.82-1.85,1.83-.02,1,.82,1.86,1.83,1.87,1.01.01,1.86-.83,1.86-1.84Z"/>
</svg>