<?xml version="1.0" encoding="UTF-8"?>
<svg id="Capa_1" data-name="Capa 1" xmlns="http://www.w3.org/2000/svg" viewBox="0 0 32 32">
  <defs>
    <style>
      .cls-1 {
        fill: #fff;
      }
    </style>
  </defs>
  <path class="cls-1" d="m2.06,23.78c.39-.53.6-.58,1.2-.3.84.4,1.67.81,2.6.95,1.81.28,3.55.13,5.21-.72.91-.46,1.84-.85,2.86-1.01,2.11-.31,4.14-.11,6.05.88.79.41,1.6.75,2.49.87,1.74.23,3.44.1,5.03-.72.25-.13.51-.25.77-.36.37-.15.76,0,.91.35.16.34.03.73-.32.9-1.14.57-2.29,1.1-3.58,1.24-1.91.22-3.75.04-5.5-.83-.78-.39-1.57-.78-2.44-.92-1.8-.29-3.56-.2-5.22.63-.89.45-1.8.87-2.79,1.04-2.24.38-4.4.15-6.43-.94-.32-.17-.68-.27-.83-.64v-.42Z"/>
  <path class="cls-1" d="m2.06,27.49c.33-.54.6-.62,1.19-.35.82.39,1.63.79,2.54.95,1.8.3,3.54.16,5.19-.66.88-.44,1.77-.85,2.75-1.01,2.1-.34,4.13-.21,6.07.75.79.39,1.59.77,2.47.92,1.8.3,3.54.16,5.19-.66.25-.13.51-.25.77-.36.39-.17.78-.04.95.31.17.35.04.75-.34.94-1.12.55-2.24,1.08-3.5,1.22-.18.02-.36.05-.55.08h-1.8c-.17-.03-.34-.06-.52-.08-1.13-.13-2.16-.57-3.17-1.05-2.41-1.15-4.83-1.15-7.25-.01-.83.39-1.66.79-2.57.96-.38.07-.76.13-1.14.19h-1.8c-.39-.06-.78-.12-1.17-.19-.95-.18-1.82-.61-2.69-1.01-.27-.13-.48-.28-.61-.55v-.37Z"/>
  <path class="cls-1" d="m14.93,2.44c2.24,0,3.47,2.1,2.51,3.81-.8,1.41-1.65,2.78-2.48,4.17-.36.6-.39.45.07,1.07.68.92,1.53,1.66,2.52,2.25,1.22.73,2.37,1.55,3.31,2.63.94,1.08,1.47,2.34,1.6,3.76.04.45.07.9.1,1.35.03.52-.41.92-.91.75-.77-.26-1.54-.52-2.26-.87-2.01-.98-4.09-1.13-6.21-.49-.73.22-1.4.61-2.12.9-.45.18-.91.32-1.37.47-.31.1-.59,0-.77-.25-.18-.24-.18-.53,0-.81.46-.77.92-1.53,1.38-2.3.51-.85,1.01-1.7,1.52-2.55.09-.15.09-.25,0-.4-.49-.73-1.01-1.45-1.45-2.22-1.03-1.75-1.09-3.57-.11-5.35.88-1.6,1.85-3.15,2.8-4.72.49-.81,1.25-1.19,1.9-1.21Zm-3.8,17.72s.03.02.04.03c.08-.04.16-.07.24-.11,2.02-1.03,4.15-1.18,6.35-.77.94.18,1.79.6,2.64,1,.22.1.44.2.7.31-.07-1.29-.47-2.39-1.29-3.34-.85-.99-1.91-1.7-3.01-2.37-1.21-.73-2.23-1.67-3.06-2.82-.54-.74-.56-1.45-.08-2.23.85-1.38,1.67-2.79,2.51-4.18.25-.42.29-.85.04-1.28-.46-.78-1.55-.76-2.03.04-.87,1.44-1.74,2.89-2.6,4.35-.89,1.51-.85,3,.11,4.47.52.79,1.04,1.58,1.57,2.36.22.32.22.63.02.96-.53.87-1.05,1.76-1.58,2.64-.19.32-.38.63-.56.95Z"/>
  <path class="cls-1" d="m20.68,12.43c0-2.37,1.91-4.28,4.28-4.28,2.38,0,4.29,1.91,4.29,4.3,0,2.38-1.92,4.27-4.32,4.27-2.34,0-4.25-1.92-4.25-4.28Zm4.29-2.89c-1.6,0-2.89,1.26-2.9,2.86-.01,1.62,1.26,2.93,2.86,2.93,1.61,0,2.93-1.29,2.94-2.89,0-1.59-1.29-2.89-2.9-2.9Z"/>
</svg>