<?xml version="1.0" encoding="UTF-8"?>
<svg id="Capa_1" data-name="Capa 1" xmlns="http://www.w3.org/2000/svg" viewBox="0 0 32 32">
  <defs>
    <style>
      .cls-1 {
        fill: #1c4336;
      }
    </style>
  </defs>
  <path class="cls-1" d="m30.15,6.28c-.68.71-1.35,1.43-2.03,2.14-2.57,2.66-5.14,5.32-7.72,7.98-.14.14-.19.26-.14.47.07.26.09.54.09.8,0,1.69,0,3.38,0,5.08,0,.12,0,.24-.03.35-.06.25-.28.41-.54.4-.25-.01-.45-.18-.49-.42-.02-.11-.02-.23-.02-.35,0-1.71,0-3.42,0-5.13,0-.92-.65-1.57-1.5-1.54-.69.02-1.28.56-1.36,1.24-.02.13-.02.25-.02.38,0,3.12,0,6.24,0,9.36,0,.09,0,.18,0,.3.11,0,.21.01.3.01.99,0,1.97,0,2.96,0,.12,0,.26.01.37.05.23.08.36.32.32.57-.04.25-.19.41-.44.45-.11.02-.22.01-.32.01-5.48,0-10.97,0-16.45,0-.62,0-.77-.15-.77-.76,0-6.17,0-12.34,0-18.51,0-1.5.91-2.68,2.32-3.01.24-.06.48-.08.72-.08,2.64,0,5.28,0,7.93,0,1.7,0,3,1.22,3.04,2.92.04,1.83.01,3.65.02,5.48,0,.11,0,.21,0,.32.03.02.07.05.1.07.06-.09.1-.19.17-.27,3.43-3.55,6.85-7.09,10.28-10.63.08-.08.15-.16.23-.23.23-.2.5-.22.71-.02.72.68,1.42,1.37,2.13,2.05.06.05.09.13.13.2v.33Zm-17.03,3.05h-7.49v9.25h7.49v-9.25Zm2.17,10.37H3.46v7.63h11.82v-7.63Zm0-1.11c0-.09.01-.17.01-.24,0-3.07,0-6.13,0-9.2,0-1.22-.81-2.01-2.04-2.01-2.59,0-5.17,0-7.76,0-1.26,0-2.05.79-2.06,2.05,0,3.04,0,6.08,0,9.12,0,.09,0,.18,0,.27h1.09c0-.12,0-.23,0-.34,0-3.11,0-6.22,0-9.34,0-.45.19-.67.6-.67,2.83,0,5.66,0,8.5,0,.37,0,.57.2.59.56,0,.09,0,.18,0,.27,0,3.06,0,6.12,0,9.17,0,.11,0,.23,0,.35h1.07Zm7.88-9.16c-.12.11-.18.17-.24.23-.49.51-.99,1.01-1.47,1.52-.11.12-.2.28-.24.43-.21.91-.4,1.82-.6,2.72-.02.07-.01.15-.02.22-.02-.03-.04-.06-.06-.08.58-.53,1.17-1.05,1.73-1.59.11-.11.19-.28.23-.44.12-.45.21-.9.31-1.35.12-.53.23-1.07.36-1.67Zm4.39-4.6c-.12.18-.25.29-.29.42-.24,1.04-.47,2.09-.72,3.22.79-.82,1.53-1.58,2.23-2.31-.41-.44-.8-.87-1.23-1.33Zm-3.64,6.27c.35-.32.71-.65,1.05-.99.09-.09.16-.24.19-.37.13-.53.25-1.07.36-1.61.1-.46.2-.92.28-1.31-.36.33-.75.69-1.14,1.06-.04.04-.06.11-.08.17-.23,1.03-.45,2.06-.67,3.06Zm-4.64,4.28c.17-.8.35-1.6.52-2.41-.33.31-.62.61-.94.88-.38.32-.35.76-.45,1.15.3.13.57.25.86.38Z"/>
  <path class="cls-1" d="m17.28,18.5c0-.16,0-.33,0-.49.02-.3.24-.51.53-.51.3,0,.54.2.55.51.01.32.01.63,0,.95-.01.31-.25.52-.55.51-.29,0-.5-.22-.52-.52-.01-.15,0-.31,0-.46Z"/>
  <path class="cls-1" d="m19.8,24.95c.3,0,.54.23.54.53,0,.31-.24.56-.54.56-.29,0-.53-.25-.53-.54,0-.3.23-.54.53-.54Z"/>
  <path class="cls-1" d="m9.38,21.58c1.29,0,2.59,0,3.88,0,.5,0,.68.18.69.69,0,.84,0,1.68,0,2.52,0,.48-.19.68-.67.68-2.61,0-5.21,0-7.82,0-.48,0-.67-.19-.67-.68,0-.85,0-1.7,0-2.55,0-.47.18-.66.66-.66,1.31,0,2.62,0,3.93,0Zm-3.5,2.79h6.96v-1.68h-6.96v1.68Z"/>
</svg>