<?xml version="1.0" encoding="UTF-8"?>
<svg id="Capa_1" data-name="Capa 1" xmlns="http://www.w3.org/2000/svg" viewBox="0 0 32 32">
  <defs>
    <style>
      .cls-1 {
        fill: #fff;
      }
    </style>
  </defs>
  <path class="cls-1" d="m8.72,26.15c-.22,0-.45,0-.69-.01-.1,0-.2,0-.3,0h-.27c-1.03-.02-1.73-.72-1.73-1.74v-1.44c0-1.62-.01-3.24.02-4.86.01-.61.09-1.23.16-1.82.01-.11.03-.21.04-.32-.89-.13-1.44-.76-1.46-1.7,0-.2,0-.4,0-.6.03-1.01.69-1.68,1.7-1.71.37,0,.73-.02,1.1,0,.25-.81.5-1.57.75-2.34l.08-.25c.63-1.94,2.16-3.05,4.2-3.05,2.74,0,5.48,0,8.22,0,2.03,0,3.56,1.11,4.2,3.05l.14.44c.23.69.45,1.38.66,2.07.03.1.05.12.05.13.3-.07.61-.07.91-.06h.17c1.04.03,1.7.7,1.71,1.75v.48c0,1-.53,1.64-1.45,1.78.02.17.03.34.05.5.07.72.14,1.47.15,2.21.03,1.4.02,2.8.02,4.2v1.5c0,1.1-.69,1.78-1.8,1.79-.59,0-1.18,0-1.77,0-1.02-.01-1.72-.71-1.74-1.73,0-.4,0-.8,0-1.2v-.04h-10.82c.04,1.18.02,2-.48,2.5-.4.4-1,.49-1.83.49Zm-.84-1.02c.06,0,.12,0,.18,0,.79.03,1.57.03,1.78-.18.22-.22.21-1,.19-1.78,0-.12,0-.24,0-.36v-.66h12.82v1.05c0,.4,0,.79,0,1.18,0,.49.26.74.75.75.58,0,1.17,0,1.75,0,.55,0,.8-.25.8-.79v-1.5c.01-1.39.02-2.78-.01-4.17-.01-.7-.08-1.4-.15-2.13-.03-.34-.06-.67-.09-1.02l-.04-.5.5-.04.03.5v-.5s.2-.01.2-.01c.57-.02.78-.24.79-.82v-.46c0-.51-.22-.74-.73-.75h-.18c-.25-.01-.51-.02-.76,0-.57.06-.95-.2-1.12-.79-.2-.69-.43-1.37-.65-2.04l-.14-.44c-.5-1.52-1.65-2.36-3.25-2.36-2.74,0-5.48,0-8.22,0-1.6,0-2.75.84-3.25,2.36l-.08.25c-.26.79-.52,1.58-.76,2.37-.17.57-.58.67-.9.65-.37-.02-.74-.01-1.11,0-.49.01-.72.25-.73.73,0,.18,0,.37,0,.55.01.48.24.72.73.74l.74.05.04.52c-.03.29-.07.57-.1.85-.07.6-.15,1.16-.16,1.72-.03,1.61-.03,3.23-.02,4.84v1.45c0,.6.41.73.75.74h.24c.05,0,.11,0,.16,0Zm3.81-5.21c-.11,0-.22,0-.33,0h-.32s-.36,0-.36,0c-.26,0-.51,0-.77,0-.78-.03-1.27-.51-1.29-1.3,0-.35-.01-.69,0-1.04.02-.39.17-.73.43-.95.25-.21.59-.3.95-.26.57.07,1.14.16,1.71.26l.65.11c.12.02.23.07.28.1.59.3.73,1.14.76,1.39.07.6-.07,1.1-.38,1.37-.28.24-.64.3-.84.31-.17.01-.34.02-.5.02Zm-.65-1.01h.33c.25,0,.49.01.74,0,.13-.01.24-.05.27-.08.02-.04.07-.26.02-.56-.05-.31-.17-.51-.22-.54l-.63-.11c-.55-.09-1.11-.19-1.67-.25-.05,0-.14-.01-.19.03-.04.04-.07.12-.07.23-.01.32-.01.65,0,.97,0,.26.06.31.32.32.24,0,.48,0,.73,0h.37Zm10.11,1c-.15,0-.31,0-.46,0-.41-.02-.76-.18-.98-.46-.22-.28-.29-.65-.21-1.05l.06-.34c.18-1.02.45-1.34,1.83-1.5.28-.03.55-.08.82-.13.2-.04.41-.07.61-.1.37-.05.72.04,1,.27.27.23.43.56.44.93.01.39.01.79,0,1.19-.02.69-.48,1.15-1.17,1.19-.29.01-.58.01-.88,0h-.1s-.62,0-.62,0c-.12,0-.24,0-.36,0Zm1.88-2.61s-.04,0-.05,0c-.2.03-.39.06-.59.1-.29.05-.58.1-.88.14q-.86.1-.97.69l-.07.36c-.02.11-.02.2.02.24.03.04.12.07.23.08.21,0,.42,0,.62,0h0s.88,0,.88,0c.27,0,.54,0,.81,0,.17,0,.22-.06.23-.23.01-.37.01-.74,0-1.11,0-.09-.03-.16-.09-.2-.04-.03-.09-.05-.16-.05Zm-5.03-2.82h-7.77c-.23,0-.62,0-.84-.3-.22-.3-.1-.68-.03-.9.33-1.05.67-2.1,1-3.15.32-1,.96-1.46,2.02-1.47h8.15c1.05,0,1.72.49,2.04,1.5.26.81.51,1.61.77,2.42l.22.69c.07.22.19.6-.03.9-.22.3-.61.3-.84.3h-4.69Zm-1.56-1h6.14s-.19-.6-.19-.6c-.25-.81-.51-1.61-.77-2.42-.19-.6-.47-.8-1.09-.8h-8.15c-.62,0-.88.19-1.07.77-.33,1.02-.65,2.03-.97,3.05h6.1Z"/>
  <path class="cls-1" d="m28.99,3.23v25.99H3.01V3.23h25.99Zm1-1H2.01v27.99h27.99V2.23h0Z"/>
</svg>