<?xml version="1.0" encoding="UTF-8"?>
<svg id="Capa_1" data-name="Capa 1" xmlns="http://www.w3.org/2000/svg" viewBox="0 0 32 32">
  <defs>
    <style>
      .cls-1 {
        fill: #fff;
      }
    </style>
  </defs>
  <path class="cls-1" d="m10.28,2.44c.41.16.86.27,1.23.49.34.2.61.52.89.81.11.11.18.15.33.11.87-.24,1.72.18,2.1.99.04.1.17.2.28.22,1,.19,1.68.75,1.99,1.72.3.92.09,1.76-.56,2.47-.51.56-1.18.79-1.92.79-2.62,0-5.25.01-7.87,0-1.45,0-2.43-.93-2.57-2.37-.11-1.11.82-2.33,1.93-2.53.09-.02.18-.05.26-.04.36.06.42-.16.49-.44.29-1.11,1.39-2.03,2.55-2.17.06,0,.12-.03.18-.04.23,0,.46,0,.69,0Zm.41,6.54c1.31,0,2.62,0,3.93,0,.91,0,1.57-.63,1.56-1.47-.01-.84-.67-1.43-1.57-1.42-.46,0-.62-.14-.68-.58-.05-.37-.29-.65-.64-.65-.19,0-.41.08-.58.19-.37.24-.69.17-.89-.22-.03-.06-.06-.13-.09-.19-.42-.82-1.33-1.26-2.26-1.09-.85.15-1.56.89-1.67,1.72-.1.76-.27.91-1.04.87-.03,0-.05,0-.08,0-.97-.02-1.67.92-1.38,1.85.2.64.73,1,1.48,1,1.3,0,2.6,0,3.91,0Z"/>
  <path class="cls-1" d="m26.95,23.41c.58,0,1.13,0,1.67,0,.03,0,.05,0,.08,0,.68.06.77.14.89.8.15.82.17,1.65,0,2.47-.29,1.48-1.2,2.37-2.66,2.63-.69.12-1.41.14-2.1.08-.61-.05-1.19.04-1.78.06-.12,0-.24.03-.37.03-5.92,0-11.85,0-17.77,0-.56,0-.74-.18-.74-.74,0-3.12,0-6.23,0-9.35,0-.31.1-.53.35-.72.52-.38,1.02-.78,1.53-1.17.4-.31.55-.3.96,0,.44.34.88.68,1.34,1.03.43-.34.86-.67,1.29-1,.46-.36.59-.36,1.04,0,.38.3.77.59,1.15.89.12.1.2.09.32,0,.4-.32.8-.63,1.21-.94.36-.28.54-.28.89,0,.4.3.8.6,1.19.92.15.12.24.11.38,0,.4-.32.8-.63,1.21-.94.32-.25.51-.25.83,0,.41.31.83.63,1.23.95.14.11.23.1.36,0,.4-.32.8-.63,1.21-.94.33-.25.51-.25.85,0,.27.21.54.42.87.66,0-.52,0-.99,0-1.46,0-.05-.13-.12-.21-.15-1.74-.58-3-1.7-3.62-3.43-.78-2.15-.38-4.12,1.13-5.84.15-.17.21-.33.2-.56-.12-2.45,1.91-4.41,4.35-4.2,2.13.19,3.77,2.12,3.6,4.25-.01.18.02.31.15.44,2.88,3.07,1.59,8.02-2.43,9.31-.18.06-.25.13-.24.33.01,1.08,0,2.17.01,3.25,0,.12.06.25.13.35.13.19.3.35.42.54.16.26.32.47.68.48.27,0,.41.22.42.54.01.36,0,.72,0,1.08,0,.1,0,.19,0,.33Zm-2.59-11.82c.14-.12.22-.2.31-.28.32-.3.64-.6.97-.89.17-.15.38-.24.58-.11.14.09.27.26.32.42.07.22-.1.39-.26.54-.59.54-1.18,1.08-1.76,1.63-.08.08-.15.22-.15.34-.01.75,0,1.5,0,2.24,0,.07.02.13.03.2,1.05-.14,1.94-.56,2.68-1.29,1.89-1.87,1.86-4.8-.05-6.65-.24-.23-.34-.46-.3-.79.04-.34.05-.69,0-1.02-.23-1.5-1.78-2.61-3.27-2.37-1.65.27-2.78,1.77-2.5,3.34.06.35-.03.6-.28.84-2.04,1.98-1.91,5.14.28,6.95.68.56,1.46.89,2.37.99,0-.87,0-1.71,0-2.56,0-.08-.08-.17-.14-.23-.57-.53-1.15-1.06-1.72-1.6-.08-.07-.15-.15-.21-.23-.14-.2-.12-.45.04-.63.17-.19.43-.23.65-.1.11.07.21.16.31.25.35.32.69.64,1.1,1.01,0-.17,0-.26,0-.35,0-1.14,0-2.27,0-3.41,0-.12,0-.25.03-.37.05-.24.22-.38.47-.39.32-.02.54.19.55.53.01.37,0,.73,0,1.16.16-.15.26-.24.37-.33.1-.1.2-.19.31-.29.2-.17.41-.23.65-.09.32.19.35.59.05.87-.4.38-.81.75-1.21,1.14-.07.07-.15.17-.15.25-.02.39,0,.79,0,1.26Zm-6.92,6.88c-.38.29-.73.58-1.1.85-.15.11-.19.22-.19.39,0,2.81,0,5.61,0,8.42,0,.09,0,.19,0,.28h2.56s.02-.06.02-.09c0-2.9,0-5.81,0-8.71,0-.07-.04-.17-.1-.22-.38-.31-.78-.6-1.19-.92Zm-8.57,9.94h2.57s.02-.07.02-.09c0-2.9,0-5.81,0-8.71,0-.08-.06-.18-.12-.24-.33-.27-.68-.52-1.02-.8-.11-.09-.19-.08-.29,0-.31.25-.62.5-.94.72-.16.12-.21.25-.21.44,0,2.79,0,5.58,0,8.37v.3Zm6.2,0s.02-.04.02-.05c0-2.92,0-5.84,0-8.76,0-.07-.04-.16-.09-.2-.39-.31-.79-.61-1.2-.93-.37.28-.72.57-1.09.84-.15.11-.2.23-.2.41,0,2.81,0,5.61,0,8.42,0,.09,0,.17,0,.26h.77v-.33c0-1.8,0-3.61,0-5.41,0-.12,0-.25.02-.37.04-.25.25-.42.5-.42.25,0,.46.16.51.41.02.12.03.24.03.37,0,1.81,0,3.62,0,5.44,0,.1,0,.21,0,.32h.74Zm-9.07,0c0-.13,0-.24,0-.34,0-1.81,0-3.63,0-5.44,0-.11,0-.21.01-.32.04-.25.24-.43.48-.44.25-.01.46.13.52.39.03.12.04.24.04.37,0,1.82,0,3.64,0,5.47,0,.1,0,.21,0,.32h.74c0-.06.01-.1.01-.14,0-2.88,0-5.76,0-8.64,0-.09-.07-.22-.14-.28-.32-.26-.66-.5-.98-.76-.13-.11-.22-.09-.34,0-.3.24-.61.48-.92.71-.15.11-.21.23-.21.41,0,2.81,0,5.62,0,8.42,0,.09,0,.17.01.27h.76Zm13.88-3.94c-.12.78-.14,1.54.08,2.29.19.65.57,1.12,1.21,1.36.75.29,1.53.29,2.31.23.05,0,.13-.13.14-.2.09-.61.09-1.23-.03-1.84-.17-.85-.63-1.45-1.49-1.7-.72-.21-1.45-.24-2.22-.14Zm8.68,0c-.77-.11-1.51-.08-2.25.15-.73.23-1.2.7-1.4,1.44-.19.71-.19,1.43-.08,2.15,0,.06.13.15.19.15.6-.02,1.22,0,1.81-.11.77-.13,1.36-.57,1.62-1.35.26-.79.26-1.61.12-2.43Zm-7.07-1.09c0-.43,0-.86,0-1.29,0-.46.18-.66.62-.67.2,0,.27-.08.26-.26,0-.51,0-1.02,0-1.53,0-.08-.04-.18-.09-.22-.39-.31-.79-.61-1.2-.93-.38.29-.76.57-1.13.88-.08.07-.15.21-.15.32-.01,1.17,0,2.34,0,3.51,0,.07,0,.14,0,.2h1.69Zm1.06-.92c0,.24.02.43,0,.61-.06.39.05.63.46.78.52.2.9.61,1.22,1.11.38-.63.91-1.03,1.56-1.29.05-.02.1-.08.1-.13,0-.35,0-.69,0-1.09-.3.07-.55.11-.79.18-.2.06-.31.22-.34.43-.06.49-.22.68-.53.69-.31.01-.49-.19-.56-.69-.03-.21-.13-.37-.33-.43-.25-.08-.5-.12-.8-.18Zm.9-5.69v3.17c.26-.18.5-.36.77-.54v-2.62h-.77Zm1.53,4.76c-.26-.29-.5-.56-.76-.86-.26.31-.5.58-.74.86.28.14.52.26.74.37.24-.12.48-.24.76-.38Z"/>
  <path class="cls-1" d="m13.8,19.76c.29,0,.52.22.53.51,0,.3-.24.55-.53.54-.28,0-.51-.24-.51-.53,0-.29.22-.51.52-.52Z"/>
  <path class="cls-1" d="m6.53,19.76c.29,0,.53.24.52.52,0,.29-.24.53-.52.53-.29,0-.53-.24-.53-.54,0-.29.23-.51.53-.51Z"/>
</svg>