<?xml version="1.0" encoding="UTF-8"?>
<svg id="Capa_1" data-name="Capa 1" xmlns="http://www.w3.org/2000/svg" viewBox="0 0 32 32">
  <defs>
    <style>
      .cls-1 {
        fill: #1c4336;
      }
    </style>
  </defs>
  <path class="cls-1" d="m3.24,10.92c0-.9,0-1.8,0-2.7.13-.1.25-.23.4-.3,4.13-1.85,8.26-3.69,12.39-5.54.7-.31,1.36-.33,2.05,0,.8.38,1.62.73,2.43,1.09,3.33,1.49,6.65,2.97,9.99,4.46.26.12.39.28.38.58-.01.73,0,1.46,0,2.19,0,.36-.14.5-.51.51-.33,0-.66,0-1,0v12.58c.37,0,.72,0,1.07,0,.28,0,.43.16.44.44,0,.46,0,.92,0,1.38,0,.3-.15.44-.45.45-.18,0-.35,0-.54,0,0,.65,0,1.27,0,1.88,0,.57-.09.66-.65.66-8.06,0-16.11,0-24.17,0-.79,0-.81-.02-.81-.82,0-.56,0-1.13,0-1.69-.36-.08-.77.12-1-.29v-1.73c.13-.21.32-.28.57-.27.31.02.62,0,.93,0v-12.57c-.33,0-.63-.01-.94,0-.25.01-.44-.06-.57-.28Zm14.22.28c0,.15,0,.27,0,.4-.01.15.05.2.19.23,1.13.3,1.85,1.14,1.98,2.29.05.48-.09.66-.57.64-.22,0-.3.08-.38.27-.25.68-.89,1.11-1.6,1.11-.71,0-1.38-.41-1.63-1.08-.09-.25-.21-.32-.46-.31-.39.01-.53-.16-.51-.55.06-1.1.79-2.05,1.84-2.34.29-.08.37-.22.33-.48,0-.06-.01-.12-.02-.21h-.27c-.63,0-1.26,0-1.89,0-.43,0-.61-.12-.61-.39,0-.29.19-.42.62-.42,5.08,0,10.16,0,15.25,0h.32v-1.6H4.07v1.6c.12,0,.23,0,.33,0,2.58,0,5.16,0,7.74,0,.1,0,.2-.01.3.01.21.05.33.19.32.41,0,.22-.13.35-.35.38-.08.01-.16,0-.24,0-1.59,0-3.18,0-4.78,0h-.29v12.56h1.73v-.78c-.56-.05-.63-.12-.63-.68,0-.36,0-.72,0-1.08,0-.34.14-.52.4-.52.26,0,.4.18.4.52,0,.31,0,.62,0,.92h2.91c0-.13,0-.25,0-.36,0-.36-.06-.42-.43-.42-.33,0-.67,0-1,0-.67,0-.89-.22-.89-.88,0-1.03,0-2.07,0-3.1,0-.41-.16-.54-.59-.5,0,.09,0,.19,0,.29,0,.67,0,1.35,0,2.02,0,.25-.18.42-.4.42-.21,0-.4-.16-.4-.39,0-.93,0-1.85,0-2.78,0-.24.15-.38.4-.39.18,0,.36,0,.54,0,.77.01,1.27.51,1.27,1.27,0,.97,0,1.94,0,2.91,0,.1,0,.19,0,.32.42,0,.81,0,1.2,0,.63.01,1.08.41,1.11.99.02.33.01.67,0,1,0,.27-.15.41-.42.43-.07,0-.14,0-.2.01v.78h1.28v-3.76c-.18,0-.33,0-.48,0-.57-.02-1.02-.46-1.06-1.03-.04-.66.45-1.18,1.15-1.18,1.95,0,3.9,0,5.86,0,.76,0,1.53,0,2.29,0,.64,0,1.11.5,1.1,1.12,0,.61-.48,1.08-1.11,1.09-.14,0-.28,0-.43,0v3.76h1.28v-.78c-.55-.04-.63-.12-.63-.66,0-.18,0-.36,0-.54,0-.82.41-1.23,1.22-1.23.36,0,.71,0,1.1,0,0-.13,0-.22,0-.32,0-.99,0-1.98,0-2.97,0-.69.5-1.19,1.19-1.21.18,0,.36,0,.54,0,.34,0,.48.15.48.5,0,.43,0,.86,0,1.3,0,1.54,0,3.08,0,4.61,0,.37-.13.5-.5.51-.04,0-.08,0-.12.01v.78h1.75c0-.38,0-.74,0-1.1,0-1.18,0-2.36,0-3.53,0-.28.16-.45.39-.46.23,0,.4.17.42.44,0,.07,0,.14,0,.22,0,1.38,0,2.75,0,4.13,0,.1,0,.21,0,.32h.68v-12.54h-.68v.33c0,1.81,0,3.62,0,5.42,0,.12.02.27-.04.34-.1.11-.25.22-.4.25-.18.03-.32-.11-.35-.3-.02-.1-.01-.2-.01-.3,0-1.81,0-3.62,0-5.42,0-.11,0-.21,0-.33h-9.56Zm-13.41,14.02c.13,0,.24,0,.34,0,5.36,0,10.72,0,16.08,0,.43,0,.63.14.62.42,0,.27-.2.39-.62.39-5.02,0-10.04,0-15.05,0h-.36v1.71h23.97v-1.71h-.31c-1.98,0-3.96,0-5.94,0-.08,0-.16,0-.24,0-.23-.03-.36-.17-.36-.4,0-.22.13-.35.33-.4.09-.02.18,0,.27,0,2.31,0,4.62,0,6.93,0,.1,0,.21,0,.32,0v-.63H4.06v.63ZM18.58,3.5c.04.08.05.1.06.11,1.34,1.42,2.68,2.83,4.03,4.24.06.07.19.1.28.11,1.79,0,3.58,0,5.36,0,.04,0,.08-.02.18-.03-3.32-1.48-6.58-2.94-9.91-4.43ZM5.68,7.9s.01.04.02.05c1.84,0,3.69,0,5.53,0,.1,0,.21-.08.28-.16,1.28-1.35,2.56-2.7,3.84-4.05.05-.06.1-.12.15-.18-.01-.01-.02-.02-.03-.03-3.27,1.46-6.53,2.92-9.8,4.38Zm10.96-4.34c-1.41,1.49-2.77,2.92-4.15,4.37h4.15V3.56Zm.85,0v4.37h4.14c-1.39-1.46-2.75-2.9-4.14-4.37Zm-11.89,7.64v12.55h.66v-12.55h-.66Zm11.46,7.38c-1.3,0-2.6,0-3.91,0-.09,0-.21-.02-.26.02-.09.08-.2.2-.2.3,0,.09.13.19.22.26.05.04.14.01.21.01,2.63,0,5.26,0,7.89,0,.05,0,.13.02.16,0,.1-.08.24-.17.27-.28.04-.17-.09-.28-.26-.31-.07-.01-.14,0-.22,0-1.3,0-2.6,0-3.91,0Zm8.04-1.72c-.44-.03-.58.1-.58.51,0,1.07,0,2.14,0,3.21,0,.51-.26.77-.76.77-.4,0-.81,0-1.21,0-.18,0-.33.05-.34.26-.01.18,0,.35,0,.52h2.9v-5.26Zm-5.21,3.15h-5.64v.77h5.64v-.77Zm-5.65,3.73h5.64v-.77h-5.64v.77Zm4.53-9.8c-.12-.77-.85-1.36-1.67-1.37-.84-.01-1.59.57-1.73,1.37h3.41Zm1.12,7.67h-5.64v.5h5.64v-.5Zm-8.6,1.35h-1.59v.77h1.59v-.77Zm11.57.77h1.58v-.78h-1.58v.78Zm-6.63-8.96c.21.4.54.59.94.55.34-.03.62-.24.72-.55h-1.65Z"/>
</svg>