<?xml version="1.0" encoding="UTF-8"?>
<svg id="CAPA" xmlns="http://www.w3.org/2000/svg" xmlns:xlink="http://www.w3.org/1999/xlink" viewBox="0 0 1431 1384">
  <defs>
    <style>
      .cls-1 {
        letter-spacing: -.01em;
      }

      .cls-2 {
        letter-spacing: -.01em;
      }

      .cls-3 {
        fill: #624a2d;
        opacity: .69;
      }

      .cls-3, .cls-4 {
        stroke: #fff;
        stroke-linecap: round;
        stroke-linejoin: round;
        stroke-width: 0px;
      }

      .cls-5 {
        letter-spacing: -.03em;
      }

      .cls-6 {
        letter-spacing: -.01em;
      }

      .cls-7 {
        letter-spacing: -.01em;
      }

      .cls-8 {
        letter-spacing: 0em;
      }

      .cls-9 {
        letter-spacing: 0em;
      }

      .cls-10 {
        letter-spacing: 0em;
      }

      .cls-11 {
        letter-spacing: 0em;
      }

      .cls-12 {
        fill: #fff;
        font-family: Boston-SemiBold, Boston;
        font-size: 16px;
        font-weight: 600;
      }

      .cls-13 {
        letter-spacing: -.04em;
      }

      .cls-14 {
        opacity: .97;
      }

      .cls-15 {
        letter-spacing: -.03em;
      }

      .cls-16 {
        letter-spacing: 0em;
      }

      .cls-17 {
        letter-spacing: 0em;
      }

      .cls-4 {
        fill: #95c11f;
        opacity: .55;
      }

      .cls-18 {
        letter-spacing: 0em;
      }

      .cls-19 {
        letter-spacing: -.01em;
      }

      .cls-20 {
        letter-spacing: -.03em;
      }

      .cls-21 {
        letter-spacing: 0em;
      }

      .cls-22 {
        letter-spacing: 0em;
      }

      .cls-23 {
        letter-spacing: 0em;
      }

      .cls-24 {
        letter-spacing: -.02em;
      }

      .cls-25 {
        letter-spacing: 0em;
      }

      .cls-26 {
        letter-spacing: 0em;
      }

      .cls-27 {
        letter-spacing: -.02em;
      }

      .cls-28 {
        letter-spacing: -.03em;
      }

      .cls-29 {
        letter-spacing: -.03em;
      }

      .cls-30 {
        letter-spacing: 0em;
      }

      .cls-31 {
        letter-spacing: -.03em;
      }

      .cls-32 {
        letter-spacing: -.02em;
      }

      .cls-33 {
        letter-spacing: -.01em;
      }

      .cls-34 {
        letter-spacing: 0em;
      }

      .cls-35 {
        letter-spacing: 0em;
      }

      .cls-36 {
        letter-spacing: -.01em;
      }

      .cls-37 {
        letter-spacing: -.01em;
      }

      .cls-38 {
        letter-spacing: 0em;
      }

      .cls-39 {
        letter-spacing: -.03em;
      }
    </style>
  </defs>
  <g id="IMAGEN_FONDO">
    <image id="FONDO_ALDEA" class="cls-14" width="11256" height="10932" transform="scale(.13)" xlink:href="data/fondo-mapa-aldea-esmeralda.jpg"/>
  </g>
  <g id="MLOC-maymap">
    <polygon id="L-376" class="cls-3" points="226.26 1102.75 165.44 1103.65 163.68 1144.69 224.31 1148.1 226.26 1102.75"/>
    <polygon id="L-375" class="cls-4" points="227.67 1072.49 166.85 1073.38 165.54 1103.72 226.36 1102.83 227.67 1072.49"/>
    <polygon id="L-374" class="cls-3" points="228.87 1042.08 168.04 1042.97 166.74 1073.31 227.56 1072.42 228.87 1042.08"/>
    <polygon id="L-373" class="cls-4" points="169.45 1012.71 168.15 1043.04 228.97 1042.15 230.27 1011.82 169.45 1012.71"/>
    <polygon id="L-372" class="cls-3" points="231.47 981.41 170.65 982.3 169.35 1012.64 230.17 1011.75 231.47 981.41"/>
    <polygon id="L-371" class="cls-4" points="172.05 952.04 170.75 982.37 231.57 981.48 232.88 951.15 172.05 952.04"/>
    <polygon id="L-370" class="cls-3" points="234.07 920.74 173.25 921.63 171.95 951.97 232.77 951.08 234.07 920.74"/>
    <polygon id="L-369" class="cls-4" points="235.48 890.47 174.66 891.37 173.36 921.7 234.18 920.81 235.48 890.47"/>
    <polygon id="L-368" class="cls-3" points="236.68 860.07 175.86 860.96 174.56 891.29 235.38 890.4 236.68 860.07"/>
    <polygon id="L-367" class="cls-4" points="238.08 829.8 177.26 830.69 175.96 861.03 236.78 860.14 238.08 829.8"/>
    <polygon id="L-366" class="cls-3" points="239.28 799.4 178.46 800.29 177.16 830.62 237.98 829.73 239.28 799.4"/>
    <polygon id="L-365" class="cls-4" points="240.69 769.13 179.87 770.02 178.57 800.36 239.39 799.47 240.69 769.13"/>
    <polygon id="L-364" class="cls-3" points="320.98 767.88 260.86 768.76 259.56 799.1 319.67 798.22 320.98 767.88"/>
    <polygon id="L-363" class="cls-4" points="319.78 798.29 259.66 799.17 258.36 829.51 318.48 828.62 319.78 798.29"/>
    <polygon id="L-362" class="cls-3" points="318.37 828.55 258.26 829.43 256.95 859.77 317.07 858.89 318.37 828.55"/>
    <polygon id="L-361" class="cls-4" points="317.17 858.96 257.06 859.84 255.75 890.18 315.87 889.3 317.17 858.96"/>
    <polygon id="L-360" class="cls-3" points="315.77 889.23 255.65 890.11 254.35 920.44 314.47 919.56 315.77 889.23"/>
    <polygon id="L-359" class="cls-4" points="314.57 919.63 254.45 920.51 253.15 950.85 313.27 949.97 314.57 919.63"/>
    <polygon id="L-358" class="cls-3" points="313.16 949.9 253.05 950.78 251.74 981.11 311.86 980.23 313.16 949.9"/>
    <polygon id="L-357" class="cls-4" points="251.85 981.18 250.55 1011.52 310.66 1010.64 311.96 980.3 251.85 981.18"/>
    <polygon id="L-356" class="cls-3" points="310.56 1010.57 250.44 1011.45 249.14 1041.79 309.26 1040.91 310.56 1010.57"/>
    <polygon id="L-355" class="cls-4" points="309.36 1040.98 249.24 1041.86 248.1 1068.4 308.04 1071.77 309.36 1040.98"/>
    <polygon id="L-354" class="cls-3" points="390.35 1039.72 329.53 1040.61 328.15 1072.84 388.78 1076.25 390.35 1039.72"/>
    <polygon id="L-353" class="cls-4" points="330.94 1010.34 329.63 1040.68 390.46 1039.79 391.76 1009.45 330.94 1010.34"/>
    <polygon id="L-352" class="cls-3" points="392.96 979.05 332.14 979.94 330.83 1010.27 391.65 1009.38 392.96 979.05"/>
    <polygon id="L-351" class="cls-4" points="394.36 948.78 333.54 949.67 332.24 980.01 393.06 979.12 394.36 948.78"/>
    <polygon id="L-350" class="cls-3" points="395.56 918.37 334.74 919.26 333.44 949.6 394.26 948.71 395.56 918.37"/>
    <polygon id="L-349" class="cls-4" points="396.97 888.11 336.15 889 334.84 919.34 395.67 918.44 396.97 888.11"/>
    <polygon id="L-348" class="cls-3" points="398.17 857.7 337.34 858.59 336.04 888.93 396.86 888.04 398.17 857.7"/>
    <polygon id="L-347" class="cls-4" points="399.57 827.44 338.75 828.33 337.45 858.66 398.27 857.77 399.57 827.44"/>
    <polygon id="L-346" class="cls-3" points="400.77 797.03 339.95 797.92 338.65 828.26 399.47 827.37 400.77 797.03"/>
    <polygon id="L-345" class="cls-4" points="402.18 766.77 341.35 767.66 340.05 797.99 400.87 797.1 402.18 766.77"/>
    <polygon id="L-344" class="cls-3" points="462.89 765.8 402.07 766.69 400.77 797.03 461.59 796.14 462.89 765.8"/>
    <polygon id="L-343" class="cls-4" points="461.7 796.21 400.87 797.1 399.57 827.44 460.39 826.55 461.7 796.21"/>
    <polygon id="L-342" class="cls-3" points="460.29 826.48 399.47 827.37 398.17 857.7 458.99 856.81 460.29 826.48"/>
    <polygon id="L-341" class="cls-4" points="459.09 856.88 398.27 857.77 396.97 888.11 457.79 887.22 459.09 856.88"/>
    <polygon id="L-340" class="cls-3" points="457.69 887.15 396.86 888.04 395.56 918.37 456.38 917.48 457.69 887.15"/>
    <polygon id="L-339" class="cls-4" points="456.49 917.55 395.67 918.44 394.36 948.78 455.18 947.89 456.49 917.55"/>
    <polygon id="L-338" class="cls-3" points="455.08 947.82 394.26 948.71 392.96 979.05 453.78 978.15 455.08 947.82"/>
    <polygon id="L-337" class="cls-4" points="393.06 979.12 391.76 1009.45 452.58 1008.56 453.88 978.23 393.06 979.12"/>
    <polygon id="L-336" class="cls-3" points="452.48 1008.49 391.65 1009.38 390.35 1039.72 451.17 1038.83 452.48 1008.49"/>
    <polygon id="L-335" class="cls-4" points="451.28 1038.9 390.46 1039.79 388.89 1076.32 449.53 1079.73 451.28 1038.9"/>
    <polygon id="L-334" class="cls-3" points="531.89 1046.59 471.06 1047.48 469.63 1080.8 530.27 1084.2 531.89 1046.59"/>
    <polygon id="L-333" class="cls-4" points="533.29 1016.32 472.47 1017.21 471.17 1047.55 531.99 1046.66 533.29 1016.32"/>
    <polygon id="L-332" class="cls-3" points="534.49 985.91 473.67 986.81 472.37 1017.14 533.19 1016.25 534.49 985.91"/>
    <polygon id="L-331" class="cls-4" points="535.9 955.65 475.07 956.54 473.77 986.88 534.59 985.98 535.9 955.65"/>
    <polygon id="L-330" class="cls-3" points="537.1 925.24 476.27 926.13 474.97 956.47 535.79 955.58 537.1 925.24"/>
    <polygon id="L-329" class="cls-4" points="538.5 894.98 477.68 895.87 476.38 926.2 537.2 925.31 538.5 894.98"/>
    <polygon id="L-328" class="cls-3" points="539.7 864.57 478.88 865.46 477.58 895.8 538.4 894.91 539.7 864.57"/>
    <polygon id="L-327" class="cls-4" points="541.11 834.31 480.28 835.2 478.98 865.53 539.8 864.64 541.11 834.31"/>
    <polygon id="L-326" class="cls-3" points="542.3 803.9 481.48 804.79 480.18 835.13 541 834.23 542.3 803.9"/>
    <polygon id="L-325" class="cls-4" points="544.09 764.69 483.27 765.58 481.59 804.86 542.41 803.97 544.09 764.69"/>
    <polygon id="L-324" class="cls-3" points="604.81 763.72 543.99 764.62 542.3 803.9 603.13 803.01 604.81 763.72"/>
    <polygon id="L-323" class="cls-4" points="603.23 803.08 542.41 803.97 541.11 834.31 601.93 833.41 603.23 803.08"/>
    <polygon id="L-322" class="cls-3" points="601.82 833.34 541 834.23 539.7 864.57 600.52 863.68 601.82 833.34"/>
    <polygon id="L-321" class="cls-4" points="600.62 863.75 539.8 864.64 538.5 894.98 599.32 894.09 600.62 863.75"/>
    <polygon id="L-320" class="cls-3" points="599.22 894.02 538.4 894.91 537.1 925.24 597.92 924.35 599.22 894.02"/>
    <polygon id="L-319" class="cls-4" points="598.02 924.42 537.2 925.31 535.9 955.65 596.72 954.76 598.02 924.42"/>
    <polygon id="L-318" class="cls-3" points="596.61 954.69 535.79 955.58 534.49 985.91 595.31 985.02 596.61 954.69"/>
    <polygon id="L-317" class="cls-4" points="595.42 985.09 534.59 985.98 533.29 1016.32 594.11 1015.43 595.42 985.09"/>
    <polygon id="L-316" class="cls-3" points="594.01 1015.36 533.19 1016.25 531.89 1046.59 592.71 1045.7 594.01 1015.36"/>
    <polygon id="L-315" class="cls-4" points="592.81 1045.77 531.99 1046.66 530.37 1084.28 591.01 1087.69 592.81 1045.77"/>
    <polygon id="L-314" class="cls-4" points="277.55 1090.33 247.24 1088.63 244.63 1149.31 274.95 1151.01 277.55 1090.33"/>
    <polygon id="L-313" class="cls-3" points="307.76 1091.97 277.45 1090.26 274.84 1150.94 305.16 1152.64 307.76 1091.97"/>
    <polygon id="L-312" class="cls-4" points="338.18 1093.74 307.87 1092.04 305.26 1152.72 335.58 1154.42 338.18 1093.74"/>
    <polygon id="L-311" class="cls-3" points="368.4 1095.38 338.08 1093.67 335.48 1154.35 365.79 1156.05 368.4 1095.38"/>
    <polygon id="L-310" class="cls-4" points="398.82 1097.15 368.5 1095.45 365.89 1156.12 396.21 1157.83 398.82 1097.15"/>
    <polygon id="L-309" class="cls-3" points="429.03 1099.11 398.71 1097.4 396.11 1158.08 426.42 1159.79 429.03 1099.11"/>
    <polygon id="L-308" class="cls-4" points="459.45 1100.56 429.13 1098.86 426.53 1159.53 456.84 1161.24 459.45 1100.56"/>
    <polygon id="L-307" class="cls-3" points="489.66 1102.2 459.34 1100.49 456.74 1161.17 487.05 1162.87 489.66 1102.2"/>
    <polygon id="L-306" class="cls-4" points="520.08 1103.97 489.76 1102.27 487.16 1162.94 517.47 1164.65 520.08 1103.97"/>
    <polygon id="L-305" class="cls-3" points="550.29 1105.61 519.98 1103.9 517.37 1164.58 546.13 1166.2 547.72 1165.56 550.29 1105.61"/>
    <polygon id="L-304" class="cls-4" points="589.9 1125.39 589.39 1125.37 590.14 1107.91 550.39 1105.68 547.82 1165.63 587.64 1149.75 589.9 1125.39"/>
    <polygon id="L-303" class="cls-3" points="646.49 1067.21 616.16 1065.77 613.56 1126.45 643.89 1127.88 646.49 1067.21"/>
    <polygon id="L-302" class="cls-4" points="676.92 1068.71 646.59 1067.28 643.99 1127.95 674.32 1129.39 676.92 1068.71"/>
    <polygon id="L-301" class="cls-3" points="707.15 1070.08 676.82 1068.64 674.21 1129.32 704.54 1130.75 707.15 1070.08"/>
    <polygon id="L-300" class="cls-4" points="737.58 1071.59 707.25 1070.15 704.65 1130.82 734.98 1132.26 737.58 1071.59"/>
    <polygon id="L-299" class="cls-3" points="767.81 1072.95 737.48 1071.51 734.87 1132.19 765.2 1133.62 767.81 1072.95"/>
    <polygon id="L-298" class="cls-4" points="798.24 1074.46 767.91 1073.02 765.31 1133.69 795.64 1135.13 798.24 1074.46"/>
    <polygon id="L-297" class="cls-3" points="828.47 1075.82 798.14 1074.39 795.53 1135.06 825.86 1136.49 828.47 1075.82"/>
    <polygon id="L-296" class="cls-4" points="858.9 1077.33 828.57 1075.89 825.97 1136.56 856.3 1138 858.9 1077.33"/>
    <polygon id="L-295" class="cls-3" points="889.13 1078.69 858.8 1077.26 856.19 1137.93 886.52 1139.36 889.13 1078.69"/>
    <polygon id="L-294" class="cls-4" points="919.56 1080.2 889.23 1078.76 886.63 1139.43 916.96 1140.87 919.56 1080.2"/>
    <polygon id="L-293" class="cls-3" points="949.79 1081.56 919.46 1080.13 916.85 1140.8 947.18 1142.23 949.79 1081.56"/>
    <polygon id="L-292" class="cls-4" points="980.22 1083.07 949.89 1081.63 947.29 1142.31 977.62 1143.74 980.22 1083.07"/>
    <polygon id="L-291" class="cls-3" points="1010.45 1084.43 980.12 1083 977.51 1143.67 1007.84 1145.11 1009.15 1114.77 1010.45 1084.43"/>
    <polygon id="L-290" class="cls-3" points="1062.96 1117.32 1009.15 1114.77 1007.84 1145.11 1061.66 1147.65 1062.96 1117.32"/>
    <polygon id="L-289" class="cls-4" points="1064.36 1087.05 1010.55 1084.5 1009.25 1114.84 1063.06 1117.39 1064.36 1087.05"/>
    <polygon id="L-288" class="cls-4" points="646.88 969.49 620.45 968.24 617.13 1045.62 643.55 1046.87 646.88 969.49"/>
    <polygon id="L-287" class="cls-3" points="673.2 970.67 646.77 969.42 643.45 1046.8 669.87 1048.05 673.2 970.67"/>
    <polygon id="L-286" class="cls-4" points="699.72 971.99 673.3 970.74 669.98 1048.12 696.4 1049.37 699.72 971.99"/>
    <polygon id="L-285" class="cls-3" points="726.04 973.17 699.62 971.92 696.3 1049.3 722.72 1050.55 726.04 973.17"/>
    <polygon id="L-284" class="cls-4" points="752.57 974.49 726.15 973.24 722.83 1050.62 749.25 1051.87 752.57 974.49"/>
    <polygon id="L-283" class="cls-3" points="778.89 975.67 752.47 974.42 749.15 1051.8 775.57 1053.05 778.89 975.67"/>
    <polygon id="L-282" class="cls-4" points="805.42 976.99 778.99 975.74 775.67 1053.12 802.1 1054.37 805.42 976.99"/>
    <polygon id="L-281" class="cls-3" points="831.74 978.17 805.31 976.92 801.99 1054.3 828.42 1055.55 831.74 978.17"/>
    <polygon id="L-280" class="cls-4" points="858.26 979.49 831.84 978.24 828.52 1055.62 854.94 1056.87 858.26 979.49"/>
    <polygon id="L-279" class="cls-3" points="884.58 980.67 858.16 979.42 854.84 1056.8 881.26 1058.05 884.58 980.67"/>
    <polygon id="L-278" class="cls-4" points="911.11 982 884.69 980.74 881.37 1058.12 907.79 1059.38 911.11 982"/>
    <polygon id="L-277" class="cls-3" points="937.43 983.18 911.01 981.92 907.69 1059.3 934.11 1060.56 937.43 983.18"/>
    <polygon id="L-276" class="cls-4" points="963.96 984.5 937.54 983.25 934.21 1060.63 960.64 1061.88 963.96 984.5"/>
    <polygon id="L-275" class="cls-3" points="990.28 985.68 963.86 984.43 960.53 1061.81 986.96 1063.06 990.28 985.68"/>
    <polygon id="L-274" class="cls-4" points="1016.81 987 990.38 985.75 987.06 1063.13 1013.48 1064.38 1016.81 987"/>
    <polygon id="L-273" class="cls-3" points="1043.13 988.18 1016.7 986.93 1013.38 1064.31 1039.8 1065.56 1043.13 988.18"/>
    <polygon id="L-272" class="cls-4" points="1068.54 989.45 1043.23 988.25 1039.91 1065.63 1065.23 1066.83 1068.54 989.45"/>
    <polygon id="L-271" class="cls-3" points="1071.75 911.99 1046.45 910.8 1043.13 988.18 1068.44 989.38 1071.75 911.99"/>
    <polygon id="L-270" class="cls-4" points="1046.55 910.87 1020.13 909.62 1016.81 987 1043.23 988.25 1046.55 910.87"/>
    <polygon id="L-269" class="cls-3" points="1020.02 909.55 993.6 908.3 990.28 985.68 1016.7 986.93 1020.02 909.55"/>
    <polygon id="L-268" class="cls-4" points="993.7 908.37 967.28 907.12 963.96 984.5 990.38 985.75 993.7 908.37"/>
    <polygon id="L-267" class="cls-3" points="967.18 907.05 940.75 905.8 937.43 983.18 963.86 984.43 967.18 907.05"/>
    <polygon id="L-266" class="cls-4" points="940.86 905.87 914.43 904.62 911.11 982 937.54 983.25 940.86 905.87"/>
    <polygon id="L-265" class="cls-3" points="914.33 904.54 887.91 903.29 884.58 980.67 911.01 981.92 914.33 904.54"/>
    <polygon id="L-264" class="cls-4" points="888.01 903.36 861.59 902.11 858.26 979.49 884.69 980.74 888.01 903.36"/>
    <polygon id="L-263" class="cls-3" points="861.48 902.04 835.06 900.79 831.74 978.17 858.16 979.42 861.48 902.04"/>
    <polygon id="L-262" class="cls-4" points="835.16 900.86 808.74 899.61 805.42 976.99 831.84 978.24 835.16 900.86"/>
    <polygon id="L-261" class="cls-3" points="808.64 899.54 782.21 898.29 778.89 975.67 805.31 976.92 808.64 899.54"/>
    <polygon id="L-260" class="cls-4" points="782.32 898.36 755.89 897.11 752.57 974.49 778.99 975.74 782.32 898.36"/>
    <polygon id="L-259" class="cls-3" points="755.79 897.04 729.37 895.79 726.04 973.17 752.47 974.42 755.79 897.04"/>
    <polygon id="L-258" class="cls-4" points="729.47 895.86 703.05 894.61 699.72 971.99 726.15 973.24 729.47 895.86"/>
    <polygon id="L-257" class="cls-3" points="702.94 894.54 676.52 893.29 673.2 970.67 699.62 971.92 702.94 894.54"/>
    <polygon id="L-256" class="cls-4" points="676.62 893.36 650.2 892.11 646.88 969.49 673.3 970.74 676.62 893.36"/>
    <polygon id="L-255" class="cls-3" points="650.09 892.04 623.67 890.79 620.35 968.17 646.77 969.42 650.09 892.04"/>
    <polygon id="L-254" class="cls-3" points="934.99 796.16 901.43 794.57 898.83 855.24 932.39 856.83 934.99 796.16"/>
    <polygon id="L-253" class="cls-4" points="901.43 794.57 871.1 793.13 868.5 853.8 898.83 855.24 901.43 794.57"/>
    <polygon id="L-252" class="cls-3" points="871 793.06 840.67 791.63 838.06 852.3 868.39 853.73 871 793.06"/>
    <polygon id="L-249" class="cls-4" points="780.11 788.83 749.78 787.39 747.18 848.06 777.51 849.5 780.11 788.83"/>
    <polygon id="L-250" class="cls-3" points="810.34 790.19 780.01 788.76 777.4 849.43 807.73 850.86 810.34 790.19"/>
    <polygon id="L-251" class="cls-4" points="840.77 791.7 810.44 790.26 807.84 850.93 838.17 852.37 840.77 791.7"/>
    <polygon id="L-248" class="cls-3" points="749.68 787.32 719.35 785.88 716.74 846.56 747.07 847.99 749.68 787.32"/>
    <polygon id="L-247" class="cls-4" points="719.45 785.96 689.12 784.52 686.52 845.19 716.85 846.63 719.45 785.96"/>
    <polygon id="L-246" class="cls-3" points="689.02 784.45 658.69 783.01 656.08 843.69 686.41 845.12 689.02 784.45"/>
    <polygon id="L-245" class="cls-4" points="658.79 783.08 628.46 781.65 625.86 842.32 656.19 843.76 658.79 783.08"/>
    <polygon id="L-244" class="cls-3" points="213.6 688.48 183.24 688.92 180.63 749.69 210.99 749.25 213.6 688.48"/>
    <polygon id="L-243" class="cls-4" points="244.07 688.1 213.71 688.55 211.1 749.32 241.46 748.87 244.07 688.1"/>
    <polygon id="L-242" class="cls-3" points="274.32 687.59 243.96 688.03 241.35 748.8 271.72 748.36 274.32 687.59"/>
    <polygon id="L-241" class="cls-4" points="304.79 687.21 274.43 687.66 271.82 748.43 302.18 747.99 304.79 687.21"/>
    <polygon id="L-240" class="cls-3" points="335.05 686.7 304.68 687.14 302.08 747.91 332.44 747.47 335.05 686.7"/>
    <polygon id="L-239" class="cls-4" points="365.51 686.32 335.15 686.77 332.54 747.54 362.9 747.1 365.51 686.32"/>
    <polygon id="L-238" class="cls-3" points="395.77 685.81 365.41 686.25 362.8 747.03 393.16 746.58 395.77 685.81"/>
    <polygon id="L-237" class="cls-4" points="426.23 685.43 395.87 685.88 393.26 746.65 423.62 746.21 426.23 685.43"/>
    <polygon id="L-236" class="cls-3" points="456.49 684.92 426.13 685.36 423.52 746.14 453.88 745.69 456.49 684.92"/>
    <polygon id="L-235" class="cls-4" points="486.95 684.54 456.59 684.99 453.98 745.76 484.34 745.32 486.95 684.54"/>
    <polygon id="L-234" class="cls-3" points="517.21 684.03 486.85 684.47 484.24 745.25 514.6 744.8 517.21 684.03"/>
    <polygon id="L-233" class="cls-4" points="547.67 683.66 517.31 684.1 514.7 744.87 545.06 744.43 547.67 683.66"/>
    <polygon id="L-232" class="cls-3" points="577.93 683.14 547.57 683.58 544.96 744.36 575.32 743.91 577.93 683.14"/>
    <polygon id="L-231" class="cls-4" points="608.39 682.77 578.03 683.21 575.42 743.98 605.79 743.54 608.39 682.77"/>
    <polygon id="L-230" class="cls-3" points="610.9 621.92 580.54 622.37 577.93 683.14 608.29 682.7 610.9 621.92"/>
    <polygon id="L-229" class="cls-4" points="580.64 622.44 550.28 622.88 547.67 683.66 578.03 683.21 580.64 622.44"/>
    <polygon id="L-228" class="cls-3" points="550.18 622.81 519.82 623.26 517.21 684.03 547.57 683.58 550.18 622.81"/>
    <polygon id="L-227" class="cls-4" points="519.92 623.33 489.56 623.77 486.95 684.54 517.31 684.1 519.92 623.33"/>
    <polygon id="L-226" class="cls-3" points="489.46 623.7 459.1 624.15 456.49 684.92 486.85 684.47 489.46 623.7"/>
    <polygon id="L-225" class="cls-4" points="459.2 624.22 428.84 624.66 426.23 685.43 456.59 684.99 459.2 624.22"/>
    <polygon id="L-224" class="cls-3" points="428.74 624.59 398.38 625.04 395.77 685.81 426.13 685.36 428.74 624.59"/>
    <polygon id="L-223" class="cls-4" points="398.48 625.11 368.12 625.55 365.51 686.32 395.87 685.88 398.48 625.11"/>
    <polygon id="L-222" class="cls-3" points="368.01 625.48 337.65 625.92 335.05 686.7 365.41 686.25 368.01 625.48"/>
    <polygon id="L-221" class="cls-4" points="337.76 626 307.4 626.44 304.79 687.21 335.15 686.77 337.76 626"/>
    <polygon id="L-220" class="cls-3" points="307.29 626.37 276.93 626.81 274.32 687.59 304.68 687.14 307.29 626.37"/>
    <polygon id="L-219" class="cls-4" points="277.04 626.89 246.68 627.33 244.07 688.1 274.43 687.66 277.04 626.89"/>
    <polygon id="L-218" class="cls-3" points="246.57 627.26 216.21 627.7 213.6 688.48 243.96 688.03 246.57 627.26"/>
    <polygon id="L-217" class="cls-4" points="216.32 627.77 185.95 628.22 183.35 688.99 213.71 688.55 216.32 627.77"/>
    <polygon id="L-216" class="cls-3" points="219.69 546.67 189.33 547.12 186.72 607.89 217.08 607.45 219.69 546.67"/>
    <polygon id="L-215" class="cls-4" points="250.15 546.3 219.79 546.74 217.18 607.52 247.55 607.07 250.15 546.3"/>
    <polygon id="L-214" class="cls-3" points="280.41 545.78 250.05 546.23 247.44 607 277.8 606.56 280.41 545.78"/>
    <polygon id="L-213" class="cls-4" points="310.88 545.41 280.51 545.86 277.91 606.63 308.27 606.18 310.88 545.41"/>
    <polygon id="L-212" class="cls-3" points="341.13 544.9 310.77 545.34 308.16 606.11 338.52 605.67 341.13 544.9"/>
    <polygon id="L-211" class="cls-4" points="371.6 544.52 341.24 544.97 338.63 605.74 368.99 605.29 371.6 544.52"/>
    <polygon id="L-210" class="cls-3" points="401.85 544.01 371.49 544.45 368.88 605.22 399.25 604.78 401.85 544.01"/>
    <polygon id="L-209" class="cls-4" points="432.32 543.63 401.96 544.08 399.35 604.85 429.71 604.4 432.32 543.63"/>
    <polygon id="L-208" class="cls-3" points="462.58 543.12 432.21 543.56 429.61 604.33 459.97 603.89 462.58 543.12"/>
    <polygon id="L-207" class="cls-4" points="493.04 542.74 462.68 543.19 460.07 603.96 490.43 603.51 493.04 542.74"/>
    <polygon id="L-206" class="cls-3" points="523.3 542.23 492.94 542.67 490.33 603.44 520.69 603 523.3 542.23"/>
    <polygon id="L-205" class="cls-4" points="553.76 541.85 523.4 542.3 520.79 603.07 551.15 602.63 553.76 541.85"/>
    <polygon id="L-204" class="cls-3" points="584.02 541.34 553.66 541.78 551.05 602.55 581.41 602.11 584.02 541.34"/>
    <polygon id="L-203" class="cls-4" points="614.48 540.96 584.12 541.41 581.51 602.18 611.87 601.74 614.48 540.96"/>
    <polygon id="L-202" class="cls-3" points="669.07 540.09 638.71 540.54 636.1 601.31 666.46 600.86 669.07 540.09"/>
    <polygon id="L-201" class="cls-4" points="699.53 539.72 669.17 540.16 666.56 600.93 696.92 600.49 699.53 539.72"/>
    <polygon id="L-200" class="cls-3" points="729.79 539.2 699.43 539.65 696.82 600.42 727.18 599.97 729.79 539.2"/>
    <polygon id="L-199" class="cls-4" points="760.25 538.83 729.89 539.27 727.28 600.05 757.64 599.6 760.25 538.83"/>
    <polygon id="L-198" class="cls-3" points="790.51 538.31 760.15 538.76 757.54 599.53 787.9 599.09 790.51 538.31"/>
    <polygon id="L-197" class="cls-4" points="820.97 537.94 790.61 538.38 788 599.16 818.36 598.71 820.97 537.94"/>
    <polygon id="L-196" class="cls-3" points="851.23 537.42 820.87 537.87 818.26 598.64 848.62 598.2 851.23 537.42"/>
    <polygon id="L-195" class="cls-4" points="881.69 537.05 851.33 537.49 848.73 598.27 879.09 597.82 881.69 537.05"/>
    <polygon id="L-194" class="cls-3" points="911.95 536.53 881.59 536.98 878.98 597.75 909.34 597.31 911.95 536.53"/>
    <polygon id="L-193" class="cls-4" points="946.13 536.11 912.06 536.6 909.45 597.38 943.53 596.88 946.13 536.11"/>
    <polygon id="L-192" class="cls-3" points="948.63 475.26 914.56 475.76 911.95 536.53 946.03 536.03 948.63 475.26"/>
    <polygon id="L-191" class="cls-4" points="914.66 475.83 884.3 476.28 881.69 537.05 912.06 536.6 914.66 475.83"/>
    <polygon id="L-190" class="cls-3" points="884.2 476.21 853.84 476.65 851.23 537.42 881.59 536.98 884.2 476.21"/>
    <polygon id="L-189" class="cls-4" points="853.94 476.72 823.58 477.17 820.97 537.94 851.33 537.49 853.94 476.72"/>
    <polygon id="L-188" class="cls-3" points="823.48 477.1 793.12 477.54 790.51 538.31 820.87 537.87 823.48 477.1"/>
    <polygon id="L-187" class="cls-4" points="793.22 477.61 762.86 478.06 760.25 538.83 790.61 538.38 793.22 477.61"/>
    <polygon id="L-186" class="cls-3" points="762.76 477.99 732.4 478.43 729.79 539.2 760.15 538.76 762.76 477.99"/>
    <polygon id="L-185" class="cls-4" points="732.5 478.5 702.14 478.95 699.53 539.72 729.89 539.27 732.5 478.5"/>
    <polygon id="L-184" class="cls-3" points="702.04 478.87 671.68 479.32 669.07 540.09 699.43 539.65 702.04 478.87"/>
    <polygon id="L-183" class="cls-4" points="671.78 479.39 641.42 479.83 638.81 540.61 669.17 540.16 671.78 479.39"/>
    <polygon id="L-182" class="cls-3" points="616.99 480.12 586.63 480.57 584.02 541.34 614.38 540.89 616.99 480.12"/>
    <polygon id="L-181" class="cls-4" points="586.73 480.64 556.37 481.08 553.76 541.85 584.12 541.41 586.73 480.64"/>
    <polygon id="L-180" class="cls-3" points="556.27 481.01 525.91 481.45 523.3 542.23 553.66 541.78 556.27 481.01"/>
    <polygon id="L-179" class="cls-4" points="526.01 481.53 495.65 481.97 493.04 542.74 523.4 542.3 526.01 481.53"/>
    <polygon id="L-178" class="cls-3" points="495.54 481.9 465.18 482.34 462.58 543.12 492.94 542.67 495.54 481.9"/>
    <polygon id="L-177" class="cls-4" points="465.29 482.41 434.93 482.86 432.32 543.63 462.68 543.19 465.29 482.41"/>
    <polygon id="L-176" class="cls-3" points="434.82 482.79 404.46 483.23 401.85 544.01 432.21 543.56 434.82 482.79"/>
    <polygon id="L-175" class="cls-4" points="404.57 483.3 374.21 483.75 371.6 544.52 401.96 544.08 404.57 483.3"/>
    <polygon id="L-174" class="cls-3" points="374.1 483.68 343.74 484.12 341.13 544.9 371.49 544.45 374.1 483.68"/>
    <polygon id="L-173" class="cls-4" points="343.84 484.19 313.48 484.64 310.88 545.41 341.24 544.97 343.84 484.19"/>
    <polygon id="L-172" class="cls-3" points="313.38 484.57 283.02 485.01 280.41 545.78 310.77 545.34 313.38 484.57"/>
    <polygon id="L-171" class="cls-4" points="283.12 485.08 252.76 485.53 250.15 546.3 280.51 545.86 283.12 485.08"/>
    <polygon id="L-170" class="cls-3" points="252.66 485.46 222.3 485.9 219.69 546.67 250.05 546.23 252.66 485.46"/>
    <polygon id="L-169" class="cls-4" points="222.4 485.97 192.04 486.42 189.43 547.19 219.79 546.74 222.4 485.97"/>
    <polygon id="L-168" class="cls-3" points="225.78 404.87 195.42 405.32 192.81 466.09 223.17 465.64 225.78 404.87"/>
    <polygon id="L-167" class="cls-4" points="256.24 404.5 225.88 404.94 223.27 465.71 253.63 465.27 256.24 404.5"/>
    <polygon id="L-166" class="cls-3" points="286.5 403.98 256.14 404.43 253.53 465.2 283.89 464.75 286.5 403.98"/>
    <polygon id="L-165" class="cls-4" points="316.96 403.61 286.6 404.05 283.99 464.83 314.35 464.38 316.96 403.61"/>
    <polygon id="L-164" class="cls-3" points="347.22 403.09 316.86 403.54 314.25 464.31 344.61 463.87 347.22 403.09"/>
    <polygon id="L-163" class="cls-4" points="377.68 402.72 347.32 403.16 344.71 463.94 375.08 463.49 377.68 402.72"/>
    <polygon id="L-162" class="cls-3" points="407.94 402.2 377.58 402.65 374.97 463.42 405.33 462.98 407.94 402.2"/>
    <polygon id="L-161" class="cls-4" points="438.41 401.83 408.04 402.27 405.44 463.05 435.8 462.6 438.41 401.83"/>
    <polygon id="L-160" class="cls-3" points="468.66 401.31 438.3 401.76 435.69 462.53 466.05 462.09 468.66 401.31"/>
    <polygon id="L-159" class="cls-4" points="499.13 400.94 468.77 401.38 466.16 462.16 496.52 461.71 499.13 400.94"/>
    <polygon id="L-158" class="cls-3" points="529.38 400.42 499.02 400.87 496.41 461.64 526.77 461.2 529.38 400.42"/>
    <polygon id="L-157" class="cls-4" points="559.85 400.05 529.49 400.5 526.88 461.27 557.24 460.82 559.85 400.05"/>
    <polygon id="L-154" class="cls-3" points="675.15 398.29 644.79 398.73 642.19 459.51 672.55 459.06 675.15 398.29"/>
    <polygon id="L-155" class="cls-4" points="620.57 399.16 590.21 399.61 587.6 460.38 617.96 459.93 620.57 399.16"/>
    <polygon id="L-156" class="cls-3" points="590.1 399.54 559.74 399.98 557.14 460.75 587.5 460.31 590.1 399.54"/>
    <polygon id="L-153" class="cls-4" points="705.62 397.92 675.26 398.36 672.65 459.13 703.01 458.69 705.62 397.92"/>
    <polygon id="L-152" class="cls-3" points="735.88 397.4 705.52 397.84 702.91 458.62 733.27 458.17 735.88 397.4"/>
    <polygon id="L-151" class="cls-4" points="766.34 397.03 735.98 397.47 733.37 458.24 763.73 457.8 766.34 397.03"/>
    <polygon id="L-150" class="cls-3" points="796.6 396.51 766.24 396.96 763.63 457.73 793.99 457.28 796.6 396.51"/>
    <polygon id="L-149" class="cls-4" points="827.06 396.14 796.7 396.58 794.09 457.35 824.45 456.91 827.06 396.14"/>
    <polygon id="L-148" class="cls-3" points="857.32 395.62 826.96 396.07 824.35 456.84 854.71 456.39 857.32 395.62"/>
    <polygon id="L-147" class="cls-4" points="887.78 395.25 857.42 395.69 854.81 456.46 885.17 456.02 887.78 395.25"/>
    <polygon id="L-146" class="cls-3" points="918.04 394.73 887.68 395.18 885.07 455.95 915.43 455.5 918.04 394.73"/>
    <polygon id="L-145" class="cls-4" points="952.2 394.3 918.14 394.8 915.53 455.57 949.6 455.08 952.2 394.3"/>
    <polygon id="L-144" class="cls-3" points="954.7 333.46 920.65 333.96 918.04 394.73 952.1 394.23 954.7 333.46"/>
    <polygon id="L-143" class="cls-4" points="920.75 334.03 890.39 334.47 887.78 395.25 918.14 394.8 920.75 334.03"/>
    <polygon id="L-142" class="cls-3" points="890.29 334.4 859.93 334.85 857.32 395.62 887.68 395.18 890.29 334.4"/>
    <polygon id="L-141" class="cls-4" points="860.03 334.92 829.67 335.36 827.06 396.14 857.42 395.69 860.03 334.92"/>
    <polygon id="L-140" class="cls-3" points="829.57 335.29 799.21 335.74 796.6 396.51 826.96 396.07 829.57 335.29"/>
    <polygon id="L-139" class="cls-4" points="799.31 335.81 768.95 336.25 766.34 397.03 796.7 396.58 799.31 335.81"/>
    <polygon id="L-138" class="cls-3" points="768.85 336.18 738.48 336.63 735.88 397.4 766.24 396.96 768.85 336.18"/>
    <polygon id="L-137" class="cls-4" points="738.59 336.7 708.23 337.14 705.62 397.92 735.98 397.47 738.59 336.7"/>
    <polygon id="L-136" class="cls-3" points="708.12 337.07 677.76 337.52 675.15 398.29 705.52 397.84 708.12 337.07"/>
    <polygon id="L-135" class="cls-4" points="677.87 337.59 647.51 338.03 644.9 398.8 675.26 398.36 677.87 337.59"/>
    <polygon id="L-134" class="cls-3" points="623.07 338.32 592.71 338.76 590.1 399.54 620.47 399.09 623.07 338.32"/>
    <polygon id="L-133" class="cls-4" points="592.82 338.83 562.46 339.28 559.85 400.05 590.21 399.61 592.82 338.83"/>
    <polygon id="L-132" class="cls-3" points="562.35 339.21 531.99 339.65 529.38 400.42 559.74 399.98 562.35 339.21"/>
    <polygon id="L-131" class="cls-4" points="532.1 339.72 501.74 340.17 499.13 400.94 529.49 400.5 532.1 339.72"/>
    <polygon id="L-130" class="cls-3" points="501.63 340.1 471.27 340.54 468.66 401.31 499.02 400.87 501.63 340.1"/>
    <polygon id="L-129" class="cls-4" points="471.37 340.61 441.01 341.06 438.41 401.83 468.77 401.38 471.37 340.61"/>
    <polygon id="L-128" class="cls-3" points="440.91 340.99 410.55 341.43 407.94 402.2 438.3 401.76 440.91 340.99"/>
    <polygon id="L-127" class="cls-4" points="410.65 341.5 380.29 341.95 377.68 402.72 408.04 402.27 410.65 341.5"/>
    <polygon id="L-126" class="cls-3" points="380.19 341.88 349.83 342.32 347.22 403.09 377.58 402.65 380.19 341.88"/>
    <polygon id="L-125" class="cls-4" points="349.93 342.39 319.57 342.84 316.96 403.61 347.32 403.16 349.93 342.39"/>
    <polygon id="L-124" class="cls-3" points="319.47 342.77 289.11 343.21 286.5 403.98 316.86 403.54 319.47 342.77"/>
    <polygon id="L-123" class="cls-4" points="289.21 343.28 258.85 343.73 256.24 404.5 286.6 404.05 289.21 343.28"/>
    <polygon id="L-122" class="cls-3" points="258.75 343.65 228.39 344.1 225.78 404.87 256.14 404.43 258.75 343.65"/>
    <polygon id="L-121" class="cls-4" points="228.49 344.17 198.13 344.61 195.52 405.39 225.88 404.94 228.49 344.17"/>
    <polygon id="L-120" class="cls-3" points="231.86 263.07 201.5 263.51 198.9 324.29 229.26 323.84 231.86 263.07"/>
    <polygon id="L-119" class="cls-4" points="262.33 262.7 231.97 263.14 229.36 323.91 259.72 323.47 262.33 262.7"/>
    <polygon id="L-118" class="cls-3" points="292.59 262.18 262.23 262.62 259.62 323.4 289.98 322.95 292.59 262.18"/>
    <polygon id="L-117" class="cls-4" points="323.05 261.81 292.69 262.25 290.08 323.02 320.44 322.58 323.05 261.81"/>
    <polygon id="L-116" class="cls-3" points="353.31 261.29 322.95 261.74 320.34 322.51 350.7 322.06 353.31 261.29"/>
    <polygon id="L-115" class="cls-4" points="383.77 260.92 353.41 261.36 350.8 322.13 381.16 321.69 383.77 260.92"/>
    <polygon id="L-114" class="cls-3" points="414.03 260.4 383.67 260.85 381.06 321.62 411.42 321.17 414.03 260.4"/>
    <polygon id="L-113" class="cls-4" points="444.49 260.03 414.13 260.47 411.52 321.24 441.88 320.8 444.49 260.03"/>
    <polygon id="L-112" class="cls-3" points="474.75 259.51 444.39 259.96 441.78 320.73 472.14 320.28 474.75 259.51"/>
    <polygon id="L-111" class="cls-4" points="505.21 259.14 474.85 259.58 472.24 320.35 502.6 319.91 505.21 259.14"/>
    <polygon id="L-110" class="cls-3" points="535.47 258.62 505.11 259.07 502.5 319.84 532.86 319.39 535.47 258.62"/>
    <polygon id="L-109" class="cls-4" points="565.93 258.25 535.57 258.69 532.97 319.47 563.33 319.02 565.93 258.25"/>
    <polygon id="L-108" class="cls-3" points="596.19 257.73 565.83 258.18 563.22 318.95 593.58 318.51 596.19 257.73"/>
    <polygon id="L-107" class="cls-4" points="626.66 257.36 596.3 257.8 593.69 318.58 624.05 318.13 626.66 257.36"/>
    <polygon id="L-106" class="cls-3" points="681.24 256.49 650.88 256.93 648.27 317.7 678.63 317.26 681.24 256.49"/>
    <polygon id="L-105" class="cls-4" points="711.71 256.11 681.35 256.56 678.74 317.33 709.1 316.89 711.71 256.11"/>
    <polygon id="L-104" class="cls-3" points="741.96 255.6 711.6 256.04 708.99 316.81 739.35 316.37 741.96 255.6"/>
    <polygon id="L-103" class="cls-4" points="772.43 255.22 742.07 255.67 739.46 316.44 769.82 316 772.43 255.22"/>
    <polygon id="L-102" class="cls-3" points="802.68 254.71 772.32 255.15 769.71 315.93 800.08 315.48 802.68 254.71"/>
    <polygon id="L-101" class="cls-4" points="833.15 254.33 802.79 254.78 800.18 315.55 830.54 315.11 833.15 254.33"/>
    <polygon id="L-100" class="cls-3" points="863.41 253.82 833.04 254.26 830.44 315.04 860.8 314.59 863.41 253.82"/>
    <polygon id="L-99" class="cls-4" points="893.87 253.44 863.51 253.89 860.9 314.66 891.26 314.22 893.87 253.44"/>
    <polygon id="L-98" class="cls-3" points="924.13 252.93 893.77 253.37 891.16 314.15 921.52 313.7 924.13 252.93"/>
    <polygon id="L-97" class="cls-4" points="958.28 252.5 924.23 253 921.62 313.77 955.67 313.27 958.28 252.5"/>
    <polygon id="L-96" class="cls-3" points="1039.27 251.24 978.45 252.13 977.15 282.47 1037.97 281.58 1039.27 251.24"/>
    <polygon id="L-95" class="cls-4" points="1038.07 281.65 977.25 282.54 975.95 312.88 1036.77 311.99 1038.07 281.65"/>
    <polygon id="L-94" class="cls-3" points="1036.67 311.91 975.85 312.81 974.55 343.14 1035.37 342.25 1036.67 311.91"/>
    <polygon id="L-93" class="cls-4" points="1035.47 342.32 974.65 343.21 973.35 373.55 1034.17 372.66 1035.47 342.32"/>
    <polygon id="L-92" class="cls-3" points="1034.07 372.59 973.25 373.48 971.95 403.81 1032.77 402.92 1034.07 372.59"/>
    <polygon id="L-91" class="cls-4" points="1032.87 402.99 972.05 403.88 970.75 434.22 1031.58 433.33 1032.87 402.99"/>
    <polygon id="L-90" class="cls-3" points="1031.47 433.26 970.65 434.15 969.35 464.49 1030.17 463.6 1031.47 433.26"/>
    <polygon id="L-89" class="cls-4" points="1030.28 463.67 969.45 464.56 968.16 494.89 1028.98 494 1030.28 463.67"/>
    <polygon id="L-88" class="cls-3" points="1028.87 493.93 968.05 494.82 966.75 525.16 1027.57 524.27 1028.87 493.93"/>
    <polygon id="L-87" class="cls-4" points="1027.68 524.34 966.86 525.23 965.56 555.56 1026.38 554.67 1027.68 524.34"/>
    <polygon id="L-86" class="cls-3" points="1026.28 554.6 965.45 555.49 964.15 585.83 1024.98 584.94 1026.28 554.6"/>
    <polygon id="L-85" class="cls-4" points="1025.08 585.01 964.26 585.9 962.96 616.24 1023.78 615.35 1025.08 585.01"/>
    <polygon id="L-84" class="cls-3" points="1023.68 615.28 962.86 616.17 961.56 646.5 1022.38 645.61 1023.68 615.28"/>
    <polygon id="L-83" class="cls-4" points="1022.48 645.68 961.66 646.57 960.33 677.61 1021.15 676.72 1022.48 645.68"/>
    <polygon id="L-82" class="cls-3" points="1021.05 676.65 960.23 677.54 958.93 707.88 1019.75 706.99 1021.05 676.65"/>
    <polygon id="L-81" class="cls-4" points="1019.85 707.06 959.03 707.95 957.73 738.28 1018.55 737.39 1019.85 707.06"/>
    <polygon id="L-80" class="cls-3" points="1018.45 737.32 957.63 738.21 956.33 768.55 1017.15 767.66 1018.45 737.32"/>
    <polygon id="L-79" class="cls-4" points="1017.25 767.73 956.43 768.62 955.13 798.95 1015.95 798.06 1017.25 767.73"/>
    <polygon id="L-78" class="cls-3" points="1015.85 797.99 955.03 798.88 953.73 829.22 1014.55 828.33 1015.85 797.99"/>
    <polygon id="L-77" class="cls-4" points="1014.66 828.4 953.83 829.29 952.61 857.79 1013.27 860.66 1014.66 828.4"/>
    <polygon id="L-76" class="cls-3" points="1075.37 827.44 1014.55 828.33 1013.17 860.59 1073.83 863.46 1075.37 827.44"/>
    <polygon id="L-75" class="cls-4" points="1076.78 797.17 1015.95 798.06 1014.66 828.4 1075.48 827.51 1076.78 797.17"/>
    <polygon id="L-74" class="cls-3" points="1077.97 766.77 1017.15 767.66 1015.85 797.99 1076.67 797.1 1077.97 766.77"/>
    <polygon id="L-73" class="cls-4" points="1079.37 736.5 1018.55 737.39 1017.25 767.73 1078.08 766.84 1079.37 736.5"/>
    <polygon id="L-72" class="cls-3" points="1080.57 706.09 1019.75 706.99 1018.45 737.32 1079.27 736.43 1080.57 706.09"/>
    <polygon id="L-71" class="cls-4" points="1081.97 675.83 1021.15 676.72 1019.85 707.06 1080.67 706.17 1081.97 675.83"/>
    <polygon id="L-70" class="cls-3" points="1083.2 644.72 1022.38 645.61 1021.05 676.65 1081.87 675.76 1083.2 644.72"/>
    <polygon id="L-69" class="cls-4" points="1084.6 614.46 1023.78 615.35 1022.48 645.68 1083.3 644.79 1084.6 614.46"/>
    <polygon id="L-68" class="cls-3" points="1085.8 584.05 1024.98 584.94 1023.68 615.28 1084.5 614.38 1085.8 584.05"/>
    <polygon id="L-67" class="cls-4" points="1087.2 553.78 1026.38 554.67 1025.08 585.01 1085.9 584.12 1087.2 553.78"/>
    <polygon id="L-66" class="cls-3" points="1088.4 523.38 1027.57 524.27 1026.28 554.6 1087.1 553.71 1088.4 523.38"/>
    <polygon id="L-65" class="cls-4" points="1089.8 493.11 1028.98 494 1027.68 524.34 1088.5 523.45 1089.8 493.11"/>
    <polygon id="L-64" class="cls-3" points="1090.99 462.7 1030.17 463.6 1028.87 493.93 1089.7 493.04 1090.99 462.7"/>
    <polygon id="L-63" class="cls-4" points="1092.4 432.44 1031.58 433.33 1030.28 463.67 1091.1 462.77 1092.4 432.44"/>
    <polygon id="L-62" class="cls-3" points="1093.59 402.03 1032.77 402.92 1031.47 433.26 1092.29 432.37 1093.59 402.03"/>
    <polygon id="L-61" class="cls-4" points="1095 371.77 1034.17 372.66 1032.87 402.99 1093.7 402.1 1095 371.77"/>
    <polygon id="L-60" class="cls-3" points="1096.19 341.36 1035.37 342.25 1034.07 372.59 1094.89 371.7 1096.19 341.36"/>
    <polygon id="L-59" class="cls-4" points="1097.59 311.09 1036.77 311.99 1035.47 342.32 1096.29 341.43 1097.59 311.09"/>
    <polygon id="L-58" class="cls-3" points="1098.79 280.69 1037.97 281.58 1036.67 311.91 1097.49 311.02 1098.79 280.69"/>
    <polygon id="L-57" class="cls-4" points="1100.19 250.42 1039.37 251.31 1038.07 281.65 1098.89 280.76 1100.19 250.42"/>
    <polygon id="L-56" class="cls-3" points="1181.18 249.16 1120.36 250.06 1119.03 281.09 1179.86 280.2 1181.18 249.16"/>
    <polygon id="L-55" class="cls-4" points="1179.96 280.27 1119.14 281.16 1117.84 311.5 1178.66 310.61 1179.96 280.27"/>
    <polygon id="L-54" class="cls-3" points="1178.56 310.54 1117.73 311.43 1116.44 341.76 1177.26 340.87 1178.56 310.54"/>
    <polygon id="L-53" class="cls-4" points="1177.36 340.94 1116.54 341.84 1115.24 372.17 1176.06 371.28 1177.36 340.94"/>
    <polygon id="L-52" class="cls-3" points="1175.96 371.21 1115.14 372.1 1113.84 402.44 1174.66 401.55 1175.96 371.21"/>
    <polygon id="L-51" class="cls-4" points="1174.76 401.62 1113.94 402.51 1112.64 432.84 1173.46 431.95 1174.76 401.62"/>
    <polygon id="L-50" class="cls-3" points="1173.36 431.88 1112.54 432.77 1111.24 463.11 1172.06 462.22 1173.36 431.88"/>
    <polygon id="L-49" class="cls-4" points="1172.16 462.29 1111.34 463.18 1110.04 493.52 1170.86 492.63 1172.16 462.29"/>
    <polygon id="L-48" class="cls-3" points="1170.76 492.55 1109.94 493.45 1108.64 523.78 1169.46 522.89 1170.76 492.55"/>
    <polygon id="L-47" class="cls-4" points="1169.56 522.96 1108.74 523.85 1107.44 554.19 1168.27 553.3 1169.56 522.96"/>
    <polygon id="L-46" class="cls-3" points="1168.16 553.23 1107.34 554.12 1106.04 584.45 1166.86 583.56 1168.16 553.23"/>
    <polygon id="L-45" class="cls-4" points="1166.97 583.63 1106.14 584.52 1104.85 614.86 1165.67 613.97 1166.97 583.63"/>
    <polygon id="L-44" class="cls-3" points="1165.56 613.9 1104.74 614.79 1103.44 645.13 1164.26 644.23 1165.56 613.9"/>
    <polygon id="L-43" class="cls-4" points="1164.37 644.31 1103.55 645.2 1102.25 675.53 1163.07 674.64 1164.37 644.31"/>
    <polygon id="L-42" class="cls-3" points="1162.96 674.57 1102.14 675.46 1100.84 705.8 1161.67 704.91 1162.96 674.57"/>
    <polygon id="L-41" class="cls-4" points="1161.77 704.98 1100.95 705.87 1099.65 736.2 1160.47 735.31 1161.77 704.98"/>
    <polygon id="L-40" class="cls-3" points="1160.37 735.24 1099.54 736.13 1098.25 766.47 1159.07 765.58 1160.37 735.24"/>
    <polygon id="L-39" class="cls-4" points="1159.17 765.65 1098.35 766.54 1097.05 796.88 1157.87 795.99 1159.17 765.65"/>
    <polygon id="L-38" class="cls-3" points="1157.77 795.91 1096.95 796.81 1095.65 827.14 1156.47 826.25 1157.77 795.91"/>
    <polygon id="L-37" class="cls-4" points="1156.57 826.32 1095.75 827.21 1094.15 864.48 1154.82 867.3 1156.57 826.32"/>
    <polygon id="L-36" class="cls-3" points="1152.63 915.82 1091.97 912.95 1090.67 943.29 1151.33 946.16 1152.63 915.82"/>
    <polygon id="L-35" class="cls-4" points="1151.44 946.23 1090.78 943.36 1089.48 973.69 1150.14 976.57 1151.44 946.23"/>
    <polygon id="L-34" class="cls-3" points="1089.37 973.62 1088.07 1003.96 1148.73 1006.83 1150.03 976.49 1089.37 973.62"/>
    <polygon id="L-33" class="cls-4" points="1148.84 1006.9 1088.18 1004.03 1086.88 1034.37 1147.54 1037.24 1148.84 1006.9"/>
    <polygon id="L-32" class="cls-3" points="1147.44 1037.17 1086.77 1034.3 1085.48 1064.63 1146.14 1067.5 1147.44 1037.17"/>
    <polygon id="L-31" class="cls-4" points="1146.24 1067.57 1085.58 1064.7 1084.28 1095.04 1144.94 1097.91 1146.24 1067.57"/>
    <polygon id="L-30" class="cls-3" points="1144.84 1097.84 1084.18 1094.97 1083.03 1121.79 1143.61 1126.45 1144.84 1097.84"/>
    <polyline id="L-29" class="cls-4" points="1143.71 1126.52 1083.13 1121.86 1081.98 1148.68 1126.21 1150.77 1142.49 1155.14 1143.71 1126.52"/>
    <polygon id="L-28" class="cls-3" points="1204.2 1131.05 1143.54 1128.17 1142.39 1155.07 1202.48 1171.19 1204.2 1131.05"/>
    <polygon id="L-27" class="cls-4" points="1205.6 1100.78 1144.94 1097.91 1143.64 1128.25 1204.3 1131.12 1205.6 1100.78"/>
    <polygon id="L-26" class="cls-3" points="1206.8 1070.37 1146.14 1067.5 1144.84 1097.84 1205.5 1100.71 1206.8 1070.37"/>
    <polygon id="L-25" class="cls-4" points="1208.2 1040.11 1147.54 1037.24 1146.24 1067.57 1206.9 1070.44 1208.2 1040.11"/>
    <polygon id="L-24" class="cls-3" points="1209.39 1009.7 1148.73 1006.83 1147.44 1037.17 1208.1 1040.04 1209.39 1009.7"/>
    <polygon id="L-23" class="cls-4" points="1210.8 979.44 1150.14 976.57 1148.84 1006.9 1209.5 1009.77 1210.8 979.44"/>
    <polygon id="L-22" class="cls-3" points="1211.99 949.03 1151.33 946.16 1150.03 976.49 1210.69 979.37 1211.99 949.03"/>
    <polygon id="L-21" class="cls-4" points="1213.4 918.76 1152.74 915.89 1151.44 946.23 1212.1 949.1 1213.4 918.76"/>
    <polygon id="L-20" class="cls-3" points="1217.29 825.36 1156.47 826.25 1154.71 867.23 1215.37 870.16 1217.29 825.36"/>
    <polygon id="L-19" class="cls-4" points="1218.69 795.09 1157.87 795.99 1156.57 826.32 1217.39 825.43 1218.69 795.09"/>
    <polygon id="L-18" class="cls-3" points="1219.89 764.69 1159.07 765.58 1157.77 795.91 1218.59 795.02 1219.89 764.69"/>
    <polygon id="L-17" class="cls-4" points="1221.29 734.42 1160.47 735.31 1159.17 765.65 1219.99 764.76 1221.29 734.42"/>
    <polygon id="L-16" class="cls-3" points="1222.49 704.02 1161.67 704.91 1160.37 735.24 1221.19 734.35 1222.49 704.02"/>
    <polygon id="L-15" class="cls-4" points="1223.89 673.75 1163.07 674.64 1161.77 704.98 1222.59 704.09 1223.89 673.75"/>
    <polygon id="L-14" class="cls-3" points="1225.09 643.34 1164.26 644.23 1162.96 674.57 1223.79 673.68 1225.09 643.34"/>
    <polygon id="L-13" class="cls-4" points="1226.49 613.08 1165.67 613.97 1164.37 644.31 1225.19 643.41 1226.49 613.08"/>
    <polygon id="L-12" class="cls-3" points="1227.68 582.67 1166.86 583.56 1165.56 613.9 1226.38 613.01 1227.68 582.67"/>
    <polygon id="L-11" class="cls-4" points="1229.09 552.41 1168.27 553.3 1166.97 583.63 1227.79 582.74 1229.09 552.41"/>
    <polygon id="L-10" class="cls-3" points="1230.28 522 1169.46 522.89 1168.16 553.23 1228.98 552.34 1230.28 522"/>
    <polygon id="L-9" class="cls-4" points="1231.69 491.73 1170.86 492.63 1169.56 522.96 1230.39 522.07 1231.69 491.73"/>
    <polygon id="L-8" class="cls-3" points="1232.88 461.33 1172.06 462.22 1170.76 492.55 1231.58 491.66 1232.88 461.33"/>
    <polygon id="L-7" class="cls-4" points="1234.28 431.06 1173.46 431.95 1172.16 462.29 1232.98 461.4 1234.28 431.06"/>
    <polygon id="L-6" class="cls-3" points="1235.48 400.66 1174.66 401.55 1173.36 431.88 1234.18 430.99 1235.48 400.66"/>
    <polygon id="L-5" class="cls-4" points="1176.06 371.28 1174.76 401.62 1235.58 400.73 1236.88 370.39 1176.06 371.28"/>
    <polygon id="L-4" class="cls-3" points="1238.08 339.98 1177.26 340.87 1175.96 371.21 1236.78 370.32 1238.08 339.98"/>
    <polygon id="L-3" class="cls-4" points="1239.48 309.72 1178.66 310.61 1177.36 340.94 1238.18 340.05 1239.48 309.72"/>
    <polygon id="L-2" class="cls-3" points="1240.68 279.31 1179.86 280.2 1178.56 310.54 1239.38 309.65 1240.68 279.31"/>
    <polygon id="L-1" class="cls-4" points="1242.11 248.34 1181.29 249.23 1179.96 280.27 1240.78 279.38 1242.11 248.34"/>
  </g>
  <g id="MNOINT-mymap">
    <text class="cls-12" transform="translate(179.62 1131.42) rotate(-.84)"><tspan x="0" y="0">3</tspan><tspan class="cls-13" x="8.77" y="0">7</tspan><tspan class="cls-8" x="16.43" y="0">6</tspan></text>
    <text class="cls-12" transform="translate(181.17 1094.97) rotate(-.84)"><tspan x="0" y="0">375</tspan></text>
    <text class="cls-12" transform="translate(182.47 1064.89) rotate(-.84)"><tspan x="0" y="0">3</tspan><tspan class="cls-15" x="8.77" y="0">7</tspan><tspan x="16.56" y="0">4</tspan></text>
    <text class="cls-12" transform="translate(183.76 1034.82) rotate(-.84)"><tspan x="0" y="0">373</tspan></text>
    <text class="cls-12" transform="translate(185.05 1004.74) rotate(-.84)"><tspan x="0" y="0">372</tspan></text>
    <text class="cls-12" transform="translate(186.35 974.66) rotate(-.84)"><tspan x="0" y="0">371</tspan></text>
    <text class="cls-12" transform="translate(187.63 944.58) rotate(-.84)"><tspan x="0" y="0">3</tspan><tspan class="cls-10" x="8.77" y="0">7</tspan><tspan x="16.94" y="0">0</tspan></text>
    <text class="cls-12" transform="translate(188.92 914.5) rotate(-.84)"><tspan x="0" y="0">3</tspan><tspan class="cls-38" x="8.77" y="0">6</tspan><tspan class="cls-8" x="18.02" y="0">9</tspan></text>
    <text class="cls-12" transform="translate(190.22 884.42) rotate(-.84)"><tspan x="0" y="0">368</tspan></text>
    <text class="cls-12" transform="translate(275.15 792.02) rotate(-.84)"><tspan x="0" y="0">364</tspan></text>
    <text class="cls-12" transform="translate(191.51 854.35) rotate(-.84)"><tspan x="0" y="0">3</tspan><tspan class="cls-28" x="8.77" y="0">6</tspan><tspan x="17.65" y="0">7</tspan></text>
    <text class="cls-12" transform="translate(192.79 824.27) rotate(-.84)"><tspan x="0" y="0">366</tspan></text>
    <text class="cls-12" transform="translate(194.09 794.19) rotate(-.84)"><tspan x="0" y="0">365</tspan></text>
    <text class="cls-12" transform="translate(273.85 822.09) rotate(-.84)"><tspan x="0" y="0">363</tspan></text>
    <text class="cls-12" transform="translate(272.56 852.17) rotate(-.84)"><tspan x="0" y="0">3</tspan><tspan class="cls-37" x="8.77" y="0">6</tspan><tspan x="17.92" y="0">2</tspan></text>
    <text class="cls-12" transform="translate(271.27 882.25) rotate(-.84)"><tspan x="0" y="0">3</tspan><tspan class="cls-39" x="8.77" y="0">6</tspan><tspan x="17.58" y="0">1</tspan></text>
    <text class="cls-12" transform="translate(269.99 912.33) rotate(-.84)"><tspan x="0" y="0">360</tspan></text>
    <text class="cls-12" transform="translate(268.69 942.41) rotate(-.84)"><tspan x="0" y="0">359</tspan></text>
    <text class="cls-12" transform="translate(267.4 972.49) rotate(-.84)"><tspan x="0" y="0">358</tspan></text>
    <text class="cls-12" transform="translate(266.11 1002.56) rotate(-.84)"><tspan x="0" y="0">357</tspan></text>
    <text class="cls-12" transform="translate(264.82 1032.64) rotate(-.84)"><tspan x="0" y="0">356</tspan></text>
    <text class="cls-12" transform="translate(263.7 1058.91) rotate(-.84)"><tspan x="0" y="0">355</tspan></text>
    <text class="cls-12" transform="translate(343.5 1062.55) rotate(-.84)"><tspan x="0" y="0">354</tspan></text>
    <text class="cls-12" transform="translate(344.87 1030.47) rotate(-.84)"><tspan x="0" y="0">353</tspan></text>
    <text class="cls-12" transform="translate(346.17 1000.39) rotate(-.84)"><tspan x="0" y="0">352</tspan></text>
    <text class="cls-12" transform="translate(347.46 970.31) rotate(-.84)"><tspan x="0" y="0">3</tspan><tspan class="cls-18" x="8.77" y="0">5</tspan><tspan x="17.52" y="0">1</tspan></text>
    <text class="cls-12" transform="translate(348.74 940.23) rotate(-.84)"><tspan x="0" y="0">350</tspan></text>
    <text class="cls-12" transform="translate(350.04 910.15) rotate(-.84)"><tspan x="0" y="0">3</tspan><tspan class="cls-17" x="8.77" y="0">4</tspan><tspan class="cls-21" x="18.03" y="0">9</tspan></text>
    <text class="cls-12" transform="translate(351.33 880.08) rotate(-.84)"><tspan x="0" y="0">348</tspan></text>
    <text class="cls-12" transform="translate(352.62 850) rotate(-.84)"><tspan x="0" y="0">3</tspan><tspan class="cls-28" x="8.77" y="0">4</tspan><tspan x="17.62" y="0">7</tspan></text>
    <text class="cls-12" transform="translate(353.92 819.91) rotate(-.84)"><tspan x="0" y="0">346</tspan></text>
    <text class="cls-12" transform="translate(355.2 789.84) rotate(-.84)"><tspan x="0" y="0">3</tspan><tspan class="cls-17" x="8.77" y="0">4</tspan><tspan class="cls-21" x="18.03" y="0">5</tspan></text>
    <text class="cls-12" transform="translate(415.51 789.96) rotate(-.84)"><tspan x="0" y="0">344</tspan></text>
    <text class="cls-12" transform="translate(414.22 820.04) rotate(-.84)"><tspan x="0" y="0">3</tspan><tspan class="cls-38" x="8.77" y="0">4</tspan><tspan class="cls-8" x="17.98" y="0">3</tspan></text>
    <text class="cls-12" transform="translate(412.92 850.11) rotate(-.84)"><tspan x="0" y="0">3</tspan><tspan class="cls-36" x="8.77" y="0">4</tspan><tspan x="17.94" y="0">2</tspan></text>
    <text class="cls-12" transform="translate(411.64 880.19) rotate(-.84)"><tspan x="0" y="0">3</tspan><tspan class="cls-28" x="8.77" y="0">4</tspan><tspan class="cls-21" x="17.62" y="0">1</tspan></text>
    <text class="cls-12" transform="translate(410.35 910.27) rotate(-.84)"><tspan x="0" y="0">340</tspan></text>
    <text class="cls-12" transform="translate(409.05 940.36) rotate(-.84)"><tspan x="0" y="0">3</tspan><tspan class="cls-23" x="8.77" y="0">3</tspan><tspan class="cls-21" x="17.49" y="0">9</tspan></text>
    <text class="cls-12" transform="translate(407.76 970.43) rotate(-.84)"><tspan x="0" y="0">338</tspan></text>
    <text class="cls-12" transform="translate(406.48 1000.51) rotate(-.84)"><tspan x="0" y="0">337</tspan></text>
    <text class="cls-12" transform="translate(405.18 1030.59) rotate(-.84)"><tspan x="0" y="0">336</tspan></text>
    <text class="cls-12" transform="translate(403.71 1064.79) rotate(-.84)"><tspan x="0" y="0">335</tspan></text>
    <text class="cls-12" transform="translate(483.83 1072.31) rotate(-.84)"><tspan x="0" y="0">334</tspan></text>
    <text class="cls-12" transform="translate(485.2 1040.28) rotate(-.84)"><tspan x="0" y="0">333</tspan></text>
    <text class="cls-12" transform="translate(486.49 1010.2) rotate(-.84)"><tspan x="0" y="0">332</tspan></text>
    <text class="cls-12" transform="translate(487.79 980.12) rotate(-.84)"><tspan x="0" y="0">331</tspan></text>
    <text class="cls-12" transform="translate(489.08 950.04) rotate(-.84)"><tspan x="0" y="0">330</tspan></text>
    <text class="cls-12" transform="translate(490.37 919.96) rotate(-.84)"><tspan x="0" y="0">329</tspan></text>
    <text class="cls-12" transform="translate(491.66 889.89) rotate(-.84)"><tspan x="0" y="0">328</tspan></text>
    <text class="cls-12" transform="translate(492.95 859.81) rotate(-.84)"><tspan x="0" y="0">3</tspan><tspan class="cls-35" x="8.77" y="0">2</tspan><tspan x="17.6" y="0">7</tspan></text>
    <text class="cls-12" transform="translate(494.24 829.74) rotate(-.84)"><tspan x="0" y="0">326</tspan></text>
    <text class="cls-12" transform="translate(495.72 795.21) rotate(-.84)"><tspan x="0" y="0">325</tspan></text>
    <text class="cls-12" transform="translate(558.03 793.34) rotate(-.84)"><tspan x="0" y="0">3</tspan><tspan class="cls-34" x="8.77" y="0">2</tspan><tspan class="cls-21" x="17.58" y="0">4</tspan></text>
    <text class="cls-12" transform="translate(556.55 827.85) rotate(-.84)"><tspan x="0" y="0">323</tspan></text>
    <text class="cls-12" transform="translate(555.26 857.92) rotate(-.84)"><tspan x="0" y="0">322</tspan></text>
    <text class="cls-12" transform="translate(553.97 888.01) rotate(-.84)"><tspan x="0" y="0">321</tspan></text>
    <text class="cls-12" transform="translate(552.68 918.09) rotate(-.84)"><tspan x="0" y="0">320</tspan></text>
    <text class="cls-12" transform="translate(551.38 948.17) rotate(-.84)"><tspan x="0" y="0">319</tspan></text>
    <text class="cls-12" transform="translate(550.09 978.24) rotate(-.84)"><tspan x="0" y="0">318</tspan></text>
    <text class="cls-12" transform="translate(548.8 1008.32) rotate(-.84)"><tspan x="0" y="0">317</tspan></text>
    <text class="cls-12" transform="translate(547.51 1038.4) rotate(-.84)"><tspan x="0" y="0">316</tspan></text>
    <text class="cls-12" transform="translate(546.04 1072.56) rotate(-.84)"><tspan x="0" y="0">315</tspan></text>
    <text class="cls-12" transform="translate(271.42 1136.66) rotate(-87.54)"><tspan x="0" y="0">314</tspan></text>
    <text class="cls-12" transform="translate(301.48 1138.32) rotate(-87.54)"><tspan x="0" y="0">313</tspan></text>
    <text class="cls-12" transform="translate(331.54 1140.03) rotate(-87.54)"><tspan x="0" y="0">312</tspan></text>
    <text class="cls-12" transform="translate(361.6 1141.72) rotate(-87.54)"><tspan x="0" y="0">311</tspan></text>
    <text class="cls-12" transform="translate(391.66 1143.42) rotate(-87.54)"><tspan x="0" y="0">310</tspan></text>
    <text class="cls-12" transform="translate(421.72 1145.1) rotate(-87.54)"><tspan x="0" y="0">309</tspan></text>
    <text class="cls-12" transform="translate(451.77 1146.81) rotate(-87.54)"><tspan x="0" y="0">308</tspan></text>
    <text class="cls-12" transform="translate(481.83 1148.48) rotate(-87.54)"><tspan x="0" y="0">3</tspan><tspan class="cls-24" x="8.77" y="0">0</tspan><tspan x="19.42" y="0">7</tspan></text>
    <text class="cls-12" transform="translate(511.9 1150.19) rotate(-87.54)"><tspan x="0" y="0">306</tspan></text>
    <text class="cls-12" transform="translate(541.23 1151.77) rotate(-87.54)"><tspan x="0" y="0">305</tspan></text>
    <text class="cls-12" transform="translate(572.94 1147.89) rotate(-87.54)"><tspan x="0" y="0">304</tspan></text>
    <text class="cls-12" transform="translate(637.32 1111.9) rotate(-87.54)"><tspan x="0" y="0">3</tspan><tspan class="cls-25" x="8.77" y="0">0</tspan><tspan x="19.62" y="0">3</tspan></text>
    <text class="cls-12" transform="translate(667.4 1113.33) rotate(-87.54)"><tspan x="0" y="0">3</tspan><tspan class="cls-32" x="8.77" y="0">0</tspan><tspan x="19.46" y="0">2</tspan></text>
    <text class="cls-12" transform="translate(697.47 1114.78) rotate(-87.54)"><tspan x="0" y="0">3</tspan><tspan class="cls-17" x="8.77" y="0">0</tspan><tspan class="cls-8" x="19.65" y="0">1</tspan></text>
    <text class="cls-12" transform="translate(727.54 1116.19) rotate(-87.54)"><tspan x="0" y="0">300</tspan></text>
    <text class="cls-12" transform="translate(757.62 1117.64) rotate(-87.54)"><tspan x="0" y="0">299</tspan></text>
    <text class="cls-12" transform="translate(787.69 1119.02) rotate(-87.54)"><tspan x="0" y="0">298</tspan></text>
    <text class="cls-12" transform="translate(817.77 1120.47) rotate(-87.54)"><tspan x="0" y="0">2</tspan><tspan class="cls-18" x="8.88" y="0">9</tspan><tspan x="18.13" y="0">7</tspan></text>
    <text class="cls-12" transform="translate(847.84 1121.89) rotate(-87.54)"><tspan x="0" y="0">296</tspan></text>
    <text class="cls-12" transform="translate(877.91 1123.32) rotate(-87.54)"><tspan x="0" y="0">295</tspan></text>
    <text class="cls-12" transform="translate(907.98 1124.74) rotate(-87.54)"><tspan x="0" y="0">294</tspan></text>
    <text class="cls-12" transform="translate(938.05 1126.15) rotate(-87.54)"><tspan x="0" y="0">2</tspan><tspan class="cls-6" x="8.88" y="0">9</tspan><tspan class="cls-8" x="17.98" y="0">3</tspan></text>
    <text class="cls-12" transform="translate(970.16 1128.17) rotate(-87.54)"><tspan x="0" y="0">2</tspan><tspan class="cls-19" x="8.88" y="0">9</tspan><tspan x="18.02" y="0">2</tspan></text>
    <text class="cls-12" transform="translate(1000.08 1128.91) rotate(-87.54)"><tspan x="0" y="0">291</tspan></text>
    <text class="cls-12" transform="translate(1017.25 1138) rotate(-.84)"><tspan x="0" y="0">290</tspan></text>
    <text class="cls-12" transform="translate(1020.02 1108.31) rotate(-.84)"><tspan x="0" y="0">289</tspan></text>
    <text class="cls-12" transform="translate(638.19 1019.36) rotate(-87.54)"><tspan x="0" y="0">288</tspan></text>
    <text class="cls-12" transform="translate(666.39 1020.6) rotate(-87.54)"><tspan x="0" y="0">2</tspan><tspan class="cls-10" x="8.88" y="0">8</tspan><tspan x="18.45" y="0">7</tspan></text>
    <text class="cls-12" transform="translate(692.58 1021.83) rotate(-87.54)"><tspan x="0" y="0">286</tspan></text>
    <text class="cls-12" transform="translate(718.79 1023.07) rotate(-87.54)"><tspan x="0" y="0">285</tspan></text>
    <text class="cls-12" transform="translate(744.99 1024.3) rotate(-87.54)"><tspan x="0" y="0">284</tspan></text>
    <text class="cls-12" transform="translate(771.18 1025.55) rotate(-87.54)"><tspan x="0" y="0">283</tspan></text>
    <text class="cls-12" transform="translate(797.38 1026.8) rotate(-87.54)"><tspan x="0" y="0">282</tspan></text>
    <text class="cls-12" transform="translate(823.58 1028.04) rotate(-87.54)"><tspan x="0" y="0">281</tspan></text>
    <text class="cls-12" transform="translate(849.78 1029.28) rotate(-87.54)"><tspan x="0" y="0">280</tspan></text>
    <text class="cls-12" transform="translate(875.98 1030.49) rotate(-87.54)"><tspan class="cls-35" x="0" y="0">2</tspan><tspan x="8.83" y="0">79</tspan></text>
    <text class="cls-12" transform="translate(902.18 1031.76) rotate(-87.54)"><tspan class="cls-35" x="0" y="0">2</tspan><tspan x="8.83" y="0">78</tspan></text>
    <text class="cls-12" transform="translate(928.51 1032.98) rotate(-87.54)"><tspan class="cls-35" x="0" y="0">2</tspan><tspan x="8.83" y="0">77</tspan></text>
    <text class="cls-12" transform="translate(956.58 1034.25) rotate(-87.54)"><tspan class="cls-35" x="0" y="0">2</tspan><tspan class="cls-13" x="8.83" y="0">7</tspan><tspan x="16.5" y="0">6</tspan></text>
    <text class="cls-12" transform="translate(982.79 1035.46) rotate(-87.54)"><tspan class="cls-35" x="0" y="0">2</tspan><tspan x="8.83" y="0">75</tspan></text>
    <text class="cls-12" transform="translate(1009.1 1036.71) rotate(-87.54)"><tspan class="cls-35" x="0" y="0">2</tspan><tspan class="cls-15" x="8.83" y="0">7</tspan><tspan x="16.62" y="0">4</tspan></text>
    <text class="cls-12" transform="translate(1035.18 1037.96) rotate(-87.54)"><tspan class="cls-35" x="0" y="0">2</tspan><tspan x="8.83" y="0">73</tspan></text>
    <text class="cls-12" transform="translate(1058.61 1039.05) rotate(-87.54)"><tspan class="cls-35" x="0" y="0">2</tspan><tspan x="8.83" y="0">72</tspan></text>
    <text class="cls-12" transform="translate(1063.9 962.33) rotate(-87.54)"><tspan class="cls-35" x="0" y="0">2</tspan><tspan x="8.83" y="0">71</tspan></text>
    <text class="cls-12" transform="translate(1038.47 961.22) rotate(-87.54)"><tspan class="cls-35" x="0" y="0">2</tspan><tspan class="cls-18" x="8.83" y="0">7</tspan><tspan class="cls-8" x="17.01" y="0">0</tspan></text>
    <text class="cls-12" transform="translate(1011.28 959.99) rotate(-87.54)"><tspan x="0" y="0">2</tspan><tspan class="cls-38" x="8.88" y="0">6</tspan><tspan class="cls-8" x="18.13" y="0">9</tspan></text>
    <text class="cls-12" transform="translate(985.08 958.72) rotate(-87.54)"><tspan x="0" y="0">268</tspan></text>
    <text class="cls-12" transform="translate(958.88 957.51) rotate(-87.54)"><tspan x="0" y="0">2</tspan><tspan class="cls-28" x="8.88" y="0">6</tspan><tspan x="17.76" y="0">7</tspan></text>
    <text class="cls-12" transform="translate(931.68 956.26) rotate(-87.54)"><tspan x="0" y="0">266</tspan></text>
    <text class="cls-12" transform="translate(905.48 955.02) rotate(-87.54)"><tspan x="0" y="0">265</tspan></text>
    <text class="cls-12" transform="translate(879.28 953.78) rotate(-87.54)"><tspan x="0" y="0">264</tspan></text>
    <text class="cls-12" transform="translate(853.08 952.55) rotate(-87.54)"><tspan x="0" y="0">263</tspan></text>
    <text class="cls-12" transform="translate(826.88 951.3) rotate(-87.54)"><tspan x="0" y="0">2</tspan><tspan class="cls-37" x="8.88" y="0">6</tspan><tspan x="18.03" y="0">2</tspan></text>
    <text class="cls-12" transform="translate(800.68 950.06) rotate(-87.54)"><tspan x="0" y="0">2</tspan><tspan class="cls-31" x="8.88" y="0">6</tspan><tspan x="17.7" y="0">1</tspan></text>
    <text class="cls-12" transform="translate(774.48 948.81) rotate(-87.54)"><tspan x="0" y="0">260</tspan></text>
    <text class="cls-12" transform="translate(748.28 947.58) rotate(-87.54)"><tspan x="0" y="0">259</tspan></text>
    <text class="cls-12" transform="translate(722.09 946.34) rotate(-87.54)"><tspan x="0" y="0">258</tspan></text>
    <text class="cls-12" transform="translate(695.88 945.08) rotate(-87.54)"><tspan x="0" y="0">257</tspan></text>
    <text class="cls-12" transform="translate(669.68 943.86) rotate(-87.54)"><tspan x="0" y="0">256</tspan></text>
    <text class="cls-12" transform="translate(643.49 942.61) rotate(-87.54)"><tspan x="0" y="0">255</tspan></text>
    <text class="cls-12" transform="translate(920.68 842.05) rotate(-87.54)"><tspan x="0" y="0">254</tspan></text>
    <text class="cls-12" transform="translate(889 840.53) rotate(-87.54)"><tspan x="0" y="0">253</tspan></text>
    <text class="cls-12" transform="translate(858.93 839.11) rotate(-87.54)"><tspan x="0" y="0">252</tspan></text>
    <text class="cls-12" transform="translate(828.86 837.7) rotate(-87.54)"><tspan x="0" y="0">2</tspan><tspan class="cls-18" x="8.88" y="0">5</tspan><tspan x="17.63" y="0">1</tspan></text>
    <text class="cls-12" transform="translate(798.79 836.26) rotate(-87.54)"><tspan x="0" y="0">250</tspan></text>
    <text class="cls-12" transform="translate(768.72 834.82) rotate(-87.54)"><tspan class="cls-17" x="0" y="0">24</tspan><tspan class="cls-21" x="18.08" y="0">9</tspan></text>
    <text class="cls-12" transform="translate(738.64 833.41) rotate(-87.54)"><tspan class="cls-17" x="0" y="0">2</tspan><tspan class="cls-21" x="8.82" y="0">48</tspan></text>
    <text class="cls-12" transform="translate(708.7 832) rotate(-87.54)"><tspan class="cls-17" x="0" y="0">2</tspan><tspan class="cls-28" x="8.82" y="0">4</tspan><tspan x="17.66" y="0">7</tspan></text>
    <text class="cls-12" transform="translate(678.49 830.58) rotate(-87.54)"><tspan class="cls-17" x="0" y="0">2</tspan><tspan class="cls-21" x="8.82" y="0">46</tspan></text>
    <text class="cls-12" transform="translate(648.42 829.14) rotate(-87.54)"><tspan class="cls-17" x="0" y="0">24</tspan><tspan class="cls-21" x="18.08" y="0">5</tspan></text>
    <text class="cls-12" transform="translate(206.51 733.37) rotate(-87.54)"><tspan class="cls-17" x="0" y="0">2</tspan><tspan class="cls-21" x="8.82" y="0">44</tspan></text>
    <text class="cls-12" transform="translate(236.49 732.92) rotate(-87.54)"><tspan class="cls-17" x="0" y="0">2</tspan><tspan class="cls-38" x="8.82" y="0">4</tspan><tspan x="18.03" y="0">3</tspan></text>
    <text class="cls-12" transform="translate(266.72 732.49) rotate(-87.54)"><tspan class="cls-17" x="0" y="0">2</tspan><tspan class="cls-36" x="8.82" y="0">4</tspan><tspan x="17.98" y="0">2</tspan></text>
    <text class="cls-12" transform="translate(296.82 732.05) rotate(-87.54)"><tspan class="cls-17" x="0" y="0">2</tspan><tspan class="cls-28" x="8.82" y="0">4</tspan><tspan class="cls-21" x="17.66" y="0">1</tspan></text>
    <text class="cls-12" transform="translate(326.81 731.61) rotate(-87.54)"><tspan class="cls-17" x="0" y="0">2</tspan><tspan class="cls-21" x="8.82" y="0">40</tspan></text>
    <text class="cls-12" transform="translate(356.9 731.19) rotate(-87.54)"><tspan x="0" y="0">2</tspan><tspan class="cls-35" x="8.88" y="0">3</tspan><tspan x="17.6" y="0">9</tspan></text>
    <text class="cls-12" transform="translate(387 730.71) rotate(-87.54)"><tspan x="0" y="0">238</tspan></text>
    <text class="cls-12" transform="translate(417.11 730.3) rotate(-87.54)"><tspan x="0" y="0">237</tspan></text>
    <text class="cls-12" transform="translate(447.21 729.83) rotate(-87.54)"><tspan x="0" y="0">236</tspan></text>
    <text class="cls-12" transform="translate(477.31 729.39) rotate(-87.54)"><tspan x="0" y="0">235</tspan></text>
    <text class="cls-12" transform="translate(507.42 728.97) rotate(-87.54)"><tspan x="0" y="0">234</tspan></text>
    <text class="cls-12" transform="translate(537.51 728.52) rotate(-87.54)"><tspan x="0" y="0">233</tspan></text>
    <text class="cls-12" transform="translate(567.63 728.1) rotate(-87.54)"><tspan x="0" y="0">232</tspan></text>
    <text class="cls-12" transform="translate(597.73 727.64) rotate(-87.54)"><tspan x="0" y="0">231</tspan></text>
    <text class="cls-12" transform="translate(600.3 667.38) rotate(-87.54)"><tspan x="0" y="0">230</tspan></text>
    <text class="cls-12" transform="translate(570.21 667.82) rotate(-87.54)"><tspan x="0" y="0">229</tspan></text>
    <text class="cls-12" transform="translate(540.11 668.27) rotate(-87.54)"><tspan x="0" y="0">228</tspan></text>
    <text class="cls-12" transform="translate(510.12 668.7) rotate(-87.54)"><tspan x="0" y="0">2</tspan><tspan class="cls-35" x="8.88" y="0">2</tspan><tspan x="17.71" y="0">7</tspan></text>
    <text class="cls-12" transform="translate(479.9 669.13) rotate(-87.54)"><tspan x="0" y="0">226</tspan></text>
    <text class="cls-12" transform="translate(449.8 669.58) rotate(-87.54)"><tspan x="0" y="0">225</tspan></text>
    <text class="cls-12" transform="translate(419.81 670.01) rotate(-87.54)"><tspan x="0" y="0">2</tspan><tspan class="cls-17" x="8.88" y="0">2</tspan><tspan class="cls-21" x="17.7" y="0">4</tspan></text>
    <text class="cls-12" transform="translate(389.59 670.48) rotate(-87.54)"><tspan x="0" y="0">223</tspan></text>
    <text class="cls-12" transform="translate(359.62 670.91) rotate(-87.54)"><tspan x="0" y="0">222</tspan></text>
    <text class="cls-12" transform="translate(329.51 671.37) rotate(-87.54)"><tspan x="0" y="0">221</tspan></text>
    <text class="cls-12" transform="translate(299.29 671.79) rotate(-87.54)"><tspan x="0" y="0">220</tspan></text>
    <text class="cls-12" transform="translate(269.18 672.22) rotate(-87.54)"><tspan x="0" y="0">219</tspan></text>
    <text class="cls-12" transform="translate(239.08 672.67) rotate(-87.54)"><tspan x="0" y="0">218</tspan></text>
    <text class="cls-12" transform="translate(209.1 673.11) rotate(-87.54)"><tspan x="0" y="0">217</tspan></text>
    <text class="cls-12" transform="translate(212.43 592.77) rotate(-87.54)"><tspan x="0" y="0">216</tspan></text>
    <text class="cls-12" transform="translate(242.53 592.33) rotate(-87.54)"><tspan x="0" y="0">215</tspan></text>
    <text class="cls-12" transform="translate(272.76 591.9) rotate(-87.54)"><tspan x="0" y="0">214</tspan></text>
    <text class="cls-12" transform="translate(302.74 591.46) rotate(-87.54)"><tspan x="0" y="0">213</tspan></text>
    <text class="cls-12" transform="translate(332.96 591.02) rotate(-87.54)"><tspan x="0" y="0">212</tspan></text>
    <text class="cls-12" transform="translate(363.07 590.56) rotate(-87.54)"><tspan x="0" y="0">211</tspan></text>
    <text class="cls-12" transform="translate(393.05 590.13) rotate(-87.54)"><tspan x="0" y="0">210</tspan></text>
    <text class="cls-12" transform="translate(423.15 589.69) rotate(-87.54)"><tspan x="0" y="0">209</tspan></text>
    <text class="cls-12" transform="translate(453.26 589.24) rotate(-87.54)"><tspan x="0" y="0">208</tspan></text>
    <text class="cls-12" transform="translate(483.35 588.8) rotate(-87.54)"><tspan x="0" y="0">2</tspan><tspan class="cls-24" x="8.88" y="0">0</tspan><tspan x="19.54" y="0">7</tspan></text>
    <text class="cls-12" transform="translate(513.46 588.36) rotate(-87.54)"><tspan x="0" y="0">206</tspan></text>
    <text class="cls-12" transform="translate(543.56 587.93) rotate(-87.54)"><tspan x="0" y="0">205</tspan></text>
    <text class="cls-12" transform="translate(573.67 587.49) rotate(-87.54)"><tspan x="0" y="0">204</tspan></text>
    <text class="cls-12" transform="translate(603.76 587.07) rotate(-87.54)"><tspan x="0" y="0">2</tspan><tspan class="cls-22" x="8.88" y="0">0</tspan><tspan x="19.73" y="0">3</tspan></text>
    <text class="cls-12" transform="translate(660.99 586.24) rotate(-87.54)"><tspan x="0" y="0">2</tspan><tspan class="cls-27" x="8.88" y="0">0</tspan><tspan x="19.57" y="0">2</tspan></text>
    <text class="cls-12" transform="translate(691.1 585.82) rotate(-87.54)"><tspan x="0" y="0">2</tspan><tspan class="cls-17" x="8.88" y="0">0</tspan><tspan class="cls-8" x="19.76" y="0">1</tspan></text>
    <text class="cls-12" transform="translate(721.2 585.37) rotate(-87.54)"><tspan x="0" y="0">200</tspan></text>
    <text class="cls-12" transform="translate(751.29 584.93) rotate(-87.54)"><tspan x="0" y="0">199</tspan></text>
    <text class="cls-12" transform="translate(781.4 584.48) rotate(-87.54)"><tspan x="0" y="0">198</tspan></text>
    <text class="cls-12" transform="translate(811.5 584.04) rotate(-87.54)"><tspan x="0" y="0">1</tspan><tspan class="cls-18" x="6.42" y="0">9</tspan><tspan x="15.66" y="0">7</tspan></text>
    <text class="cls-12" transform="translate(841.61 583.58) rotate(-87.54)"><tspan x="0" y="0">196</tspan></text>
    <text class="cls-12" transform="translate(871.71 583.17) rotate(-87.54)"><tspan x="0" y="0">195</tspan></text>
    <text class="cls-12" transform="translate(901.81 582.71) rotate(-87.54)"><tspan x="0" y="0">194</tspan></text>
    <text class="cls-12" transform="translate(933.76 582.26) rotate(-87.54)"><tspan x="0" y="0">1</tspan><tspan class="cls-1" x="6.42" y="0">9</tspan><tspan class="cls-8" x="15.52" y="0">3</tspan></text>
    <text class="cls-12" transform="translate(936.34 522) rotate(-87.54)"><tspan x="0" y="0">1</tspan><tspan class="cls-19" x="6.42" y="0">9</tspan><tspan x="15.55" y="0">2</tspan></text>
    <text class="cls-12" transform="translate(904.41 522.46) rotate(-87.54)"><tspan x="0" y="0">191</tspan></text>
    <text class="cls-12" transform="translate(874.3 522.88) rotate(-87.54)"><tspan x="0" y="0">190</tspan></text>
    <text class="cls-12" transform="translate(844.19 523.34) rotate(-87.54)"><tspan x="0" y="0">189</tspan></text>
    <text class="cls-12" transform="translate(814.1 523.8) rotate(-87.54)"><tspan x="0" y="0">188</tspan></text>
    <text class="cls-12" transform="translate(783.99 524.23) rotate(-87.54)"><tspan x="0" y="0">1</tspan><tspan class="cls-18" x="6.42" y="0">8</tspan><tspan x="15.98" y="0">7</tspan></text>
    <text class="cls-12" transform="translate(753.9 524.68) rotate(-87.54)"><tspan x="0" y="0">186</tspan></text>
    <text class="cls-12" transform="translate(723.79 525.12) rotate(-87.54)"><tspan x="0" y="0">185</tspan></text>
    <text class="cls-12" transform="translate(693.68 525.54) rotate(-87.54)"><tspan x="0" y="0">184</tspan></text>
    <text class="cls-12" transform="translate(663.58 526.01) rotate(-87.54)"><tspan x="0" y="0">183</tspan></text>
    <text class="cls-12" transform="translate(606.35 526.79) rotate(-87.54)"><tspan x="0" y="0">182</tspan></text>
    <text class="cls-12" transform="translate(576.25 527.21) rotate(-87.54)"><tspan x="0" y="0">181</tspan></text>
    <text class="cls-12" transform="translate(546.15 527.67) rotate(-87.54)"><tspan x="0" y="0">180</tspan></text>
    <text class="cls-12" transform="translate(516.05 528.1) rotate(-87.54)"><tspan x="0" y="0">179</tspan></text>
    <text class="cls-12" transform="translate(485.94 528.55) rotate(-87.54)"><tspan x="0" y="0">178</tspan></text>
    <text class="cls-12" transform="translate(455.96 528.99) rotate(-87.54)"><tspan x="0" y="0">177</tspan></text>
    <text class="cls-12" transform="translate(425.74 529.44) rotate(-87.54)"><tspan x="0" y="0">1</tspan><tspan class="cls-13" x="6.42" y="0">7</tspan><tspan class="cls-21" x="14.08" y="0">6</tspan></text>
    <text class="cls-12" transform="translate(395.63 529.86) rotate(-87.54)"><tspan x="0" y="0">175</tspan></text>
    <text class="cls-12" transform="translate(365.65 530.32) rotate(-87.54)"><tspan x="0" y="0">1</tspan><tspan class="cls-15" x="6.42" y="0">7</tspan><tspan class="cls-21" x="14.21" y="0">4</tspan></text>
    <text class="cls-12" transform="translate(335.42 530.75) rotate(-87.54)"><tspan x="0" y="0">173</tspan></text>
    <text class="cls-12" transform="translate(305.44 531.19) rotate(-87.54)"><tspan x="0" y="0">172</tspan></text>
    <text class="cls-12" transform="translate(275.34 531.65) rotate(-87.54)"><tspan x="0" y="0">171</tspan></text>
    <text class="cls-12" transform="translate(245.12 532.06) rotate(-87.54)"><tspan x="0" y="0">1</tspan><tspan class="cls-18" x="6.42" y="0">7</tspan><tspan x="14.59" y="0">0</tspan></text>
    <text class="cls-12" transform="translate(215.01 532.53) rotate(-87.54)"><tspan x="0" y="0">1</tspan><tspan class="cls-38" x="6.42" y="0">6</tspan><tspan x="15.66" y="0">9</tspan></text>
    <text class="cls-12" transform="translate(218.46 452.17) rotate(-87.54)"><tspan x="0" y="0">168</tspan></text>
    <text class="cls-12" transform="translate(248.56 451.72) rotate(-87.54)"><tspan x="0" y="0">1</tspan><tspan class="cls-28" x="6.42" y="0">6</tspan><tspan x="15.3" y="0">7</tspan></text>
    <text class="cls-12" transform="translate(278.67 451.28) rotate(-87.54)"><tspan x="0" y="0">166</tspan></text>
    <text class="cls-12" transform="translate(308.78 450.86) rotate(-87.54)"><tspan x="0" y="0">165</tspan></text>
    <text class="cls-12" transform="translate(338.87 450.38) rotate(-87.54)"><tspan x="0" y="0">164</tspan></text>
    <text class="cls-12" transform="translate(368.98 449.97) rotate(-87.54)"><tspan x="0" y="0">163</tspan></text>
    <text class="cls-12" transform="translate(399.09 449.54) rotate(-87.54)"><tspan x="0" y="0">1</tspan><tspan class="cls-33" x="6.42" y="0">6</tspan><tspan x="15.57" y="0">2</tspan></text>
    <text class="cls-12" transform="translate(429.18 449.07) rotate(-87.54)"><tspan x="0" y="0">1</tspan><tspan class="cls-29" x="6.42" y="0">6</tspan><tspan class="cls-8" x="15.23" y="0">1</tspan></text>
    <text class="cls-12" transform="translate(459.29 448.66) rotate(-87.54)"><tspan x="0" y="0">160</tspan></text>
    <text class="cls-12" transform="translate(489.4 448.19) rotate(-87.54)"><tspan x="0" y="0">159</tspan></text>
    <text class="cls-12" transform="translate(519.5 447.77) rotate(-87.54)"><tspan x="0" y="0">158</tspan></text>
    <text class="cls-12" transform="translate(549.6 447.33) rotate(-87.54)"><tspan x="0" y="0">157</tspan></text>
    <text class="cls-12" transform="translate(579.69 446.88) rotate(-87.54)"><tspan x="0" y="0">156</tspan></text>
    <text class="cls-12" transform="translate(609.8 446.44) rotate(-87.54)"><tspan x="0" y="0">155</tspan></text>
    <text class="cls-12" transform="translate(666.03 445.65) rotate(-87.54)"><tspan x="0" y="0">154</tspan></text>
    <text class="cls-12" transform="translate(696.12 445.21) rotate(-87.54)"><tspan x="0" y="0">153</tspan></text>
    <text class="cls-12" transform="translate(726.24 444.76) rotate(-87.54)"><tspan x="0" y="0">152</tspan></text>
    <text class="cls-12" transform="translate(756.34 444.35) rotate(-87.54)"><tspan x="0" y="0">1</tspan><tspan class="cls-18" x="6.42" y="0">5</tspan><tspan class="cls-21" x="15.17" y="0">1</tspan></text>
    <text class="cls-12" transform="translate(786.44 443.87) rotate(-87.54)"><tspan x="0" y="0">150</tspan></text>
    <text class="cls-12" transform="translate(816.54 443.42) rotate(-87.54)"><tspan x="0" y="0">1</tspan><tspan class="cls-16" x="6.42" y="0">4</tspan><tspan x="15.68" y="0">9</tspan></text>
    <text class="cls-12" transform="translate(846.66 443.01) rotate(-87.54)"><tspan x="0" y="0">148</tspan></text>
    <text class="cls-12" transform="translate(876.86 442.56) rotate(-87.54)"><tspan x="0" y="0">1</tspan><tspan class="cls-20" x="6.42" y="0">4</tspan><tspan x="15.26" y="0">7</tspan></text>
    <text class="cls-12" transform="translate(906.85 442.12) rotate(-87.54)"><tspan x="0" y="0">146</tspan></text>
    <text class="cls-12" transform="translate(938.79 441.66) rotate(-87.54)"><tspan x="0" y="0">1</tspan><tspan class="cls-16" x="6.42" y="0">4</tspan><tspan x="15.68" y="0">5</tspan></text>
    <text class="cls-12" transform="translate(942.49 379.4) rotate(-87.54)"><tspan x="0" y="0">144</tspan></text>
    <text class="cls-12" transform="translate(910.44 379.87) rotate(-87.54)"><tspan x="0" y="0">1</tspan><tspan class="cls-11" x="6.42" y="0">4</tspan><tspan x="15.63" y="0">3</tspan></text>
    <text class="cls-12" transform="translate(880.45 380.31) rotate(-87.54)"><tspan x="0" y="0">1</tspan><tspan class="cls-36" x="6.42" y="0">4</tspan><tspan x="15.58" y="0">2</tspan></text>
    <text class="cls-12" transform="translate(850.35 380.73) rotate(-87.54)"><tspan x="0" y="0">1</tspan><tspan class="cls-20" x="6.42" y="0">4</tspan><tspan x="15.26" y="0">1</tspan></text>
    <text class="cls-12" transform="translate(820.13 381.2) rotate(-87.54)"><tspan x="0" y="0">140</tspan></text>
    <text class="cls-12" transform="translate(790.02 381.63) rotate(-87.54)"><tspan x="0" y="0">1</tspan><tspan class="cls-35" x="6.42" y="0">3</tspan><tspan x="15.14" y="0">9</tspan></text>
    <text class="cls-12" transform="translate(759.91 382.05) rotate(-87.54)"><tspan x="0" y="0">138</tspan></text>
    <text class="cls-12" transform="translate(729.82 382.52) rotate(-87.54)"><tspan x="0" y="0">137</tspan></text>
    <text class="cls-12" transform="translate(699.72 382.93) rotate(-87.54)"><tspan x="0" y="0">136</tspan></text>
    <text class="cls-12" transform="translate(669.61 383.38) rotate(-87.54)"><tspan x="0" y="0">135</tspan></text>
    <text class="cls-12" transform="translate(612.39 386.18) rotate(-87.54)"><tspan x="0" y="0">134</tspan></text>
    <text class="cls-12" transform="translate(582.28 386.63) rotate(-87.54)"><tspan x="0" y="0">133</tspan></text>
    <text class="cls-12" transform="translate(552.18 387.07) rotate(-87.54)"><tspan x="0" y="0">132</tspan></text>
    <text class="cls-12" transform="translate(522.08 387.52) rotate(-87.54)"><tspan x="0" y="0">131</tspan></text>
    <text class="cls-12" transform="translate(491.97 387.96) rotate(-87.54)"><tspan x="0" y="0">130</tspan></text>
    <text class="cls-12" transform="translate(461.88 388.39) rotate(-87.54)"><tspan x="0" y="0">129</tspan></text>
    <text class="cls-12" transform="translate(431.77 388.83) rotate(-87.54)"><tspan x="0" y="0">128</tspan></text>
    <text class="cls-12" transform="translate(401.79 389.27) rotate(-87.54)"><tspan x="0" y="0">1</tspan><tspan class="cls-35" x="6.42" y="0">2</tspan><tspan x="15.25" y="0">7</tspan></text>
    <text class="cls-12" transform="translate(371.57 389.7) rotate(-87.54)"><tspan x="0" y="0">126</tspan></text>
    <text class="cls-12" transform="translate(341.47 390.14) rotate(-87.54)"><tspan x="0" y="0">125</tspan></text>
    <text class="cls-12" transform="translate(311.48 390.57) rotate(-87.54)"><tspan x="0" y="0">1</tspan><tspan class="cls-16" x="6.42" y="0">2</tspan><tspan x="15.23" y="0">4</tspan></text>
    <text class="cls-12" transform="translate(281.25 391.05) rotate(-87.54)"><tspan x="0" y="0">123</tspan></text>
    <text class="cls-12" transform="translate(251.27 391.49) rotate(-87.54)"><tspan x="0" y="0">122</tspan></text>
    <text class="cls-12" transform="translate(221.18 391.91) rotate(-87.54)"><tspan x="0" y="0">121</tspan></text>
    <text class="cls-12" transform="translate(222.69 311.42) rotate(-87.54)"><tspan x="0" y="0">120</tspan></text>
    <text class="cls-12" transform="translate(252.84 311.15) rotate(-87.54)"><tspan x="0" y="0">119</tspan></text>
    <text class="cls-12" transform="translate(282.94 310.73) rotate(-87.54)"><tspan x="0" y="0">118</tspan></text>
    <text class="cls-12" transform="translate(313.16 310.27) rotate(-87.54)"><tspan x="0" y="0">117</tspan></text>
    <text class="cls-12" transform="translate(343.15 309.84) rotate(-87.54)"><tspan x="0" y="0">116</tspan></text>
    <text class="cls-12" transform="translate(373.24 309.39) rotate(-87.54)"><tspan x="0" y="0">115</tspan></text>
    <text class="cls-12" transform="translate(403.47 308.96) rotate(-87.54)"><tspan x="0" y="0">114</tspan></text>
    <text class="cls-12" transform="translate(433.45 308.53) rotate(-87.54)"><tspan x="0" y="0">113</tspan></text>
    <text class="cls-12" transform="translate(463.67 308.07) rotate(-87.54)"><tspan x="0" y="0">112</tspan></text>
    <text class="cls-12" transform="translate(493.77 307.63) rotate(-87.54)"><tspan x="0" y="0">111</tspan></text>
    <text class="cls-12" transform="translate(523.76 307.19) rotate(-87.54)"><tspan x="0" y="0">110</tspan></text>
    <text class="cls-12" transform="translate(553.86 306.75) rotate(-87.54)"><tspan x="0" y="0">109</tspan></text>
    <text class="cls-12" transform="translate(583.97 306.31) rotate(-87.54)"><tspan x="0" y="0">108</tspan></text>
    <text class="cls-12" transform="translate(614.06 305.86) rotate(-87.54)"><tspan x="0" y="0">1</tspan><tspan class="cls-24" x="6.42" y="0">0</tspan><tspan x="17.07" y="0">7</tspan></text>
    <text class="cls-12" transform="translate(672.29 305.05) rotate(-87.54)"><tspan x="0" y="0">106</tspan></text>
    <text class="cls-12" transform="translate(702.39 304.62) rotate(-87.54)"><tspan x="0" y="0">105</tspan></text>
    <text class="cls-12" transform="translate(732.5 304.19) rotate(-87.54)"><tspan x="0" y="0">104</tspan></text>
    <text class="cls-12" transform="translate(762.6 303.74) rotate(-87.54)"><tspan x="0" y="0">1</tspan><tspan class="cls-25" x="6.42" y="0">0</tspan><tspan x="17.26" y="0">3</tspan></text>
    <text class="cls-12" transform="translate(792.7 303.3) rotate(-87.54)"><tspan x="0" y="0">1</tspan><tspan class="cls-32" x="6.42" y="0">0</tspan><tspan x="17.1" y="0">2</tspan></text>
    <text class="cls-12" transform="translate(822.81 302.88) rotate(-87.54)"><tspan x="0" y="0">1</tspan><tspan class="cls-17" x="6.42" y="0">0</tspan><tspan x="17.3" y="0">1</tspan></text>
    <text class="cls-12" transform="translate(852.92 302.43) rotate(-87.54)"><tspan x="0" y="0">100</tspan></text>
    <text class="cls-12" transform="translate(883.25 294.52) rotate(-87.54)"><tspan x="0" y="0">99</tspan></text>
    <text class="cls-12" transform="translate(913.35 294.1) rotate(-87.54)"><tspan x="0" y="0">98</tspan></text>
    <text class="cls-12" transform="translate(945.53 296.58) rotate(-87.54)"><tspan class="cls-10" x="0" y="0">9</tspan><tspan x="9.25" y="0">7</tspan></text>
    <text class="cls-12" transform="translate(992.41 275.33) rotate(-.84)"><tspan x="0" y="0">96</tspan></text>
    <text class="cls-12" transform="translate(991.12 305.41) rotate(-.84)"><tspan x="0" y="0">95</tspan></text>
    <text class="cls-12" transform="translate(989.83 335.49) rotate(-.84)"><tspan x="0" y="0">94</tspan></text>
    <text class="cls-12" transform="translate(993.55 367.56) rotate(-.84)"><tspan class="cls-2" x="0" y="0">9</tspan><tspan x="9.1" y="0">3</tspan></text>
    <text class="cls-12" transform="translate(992.26 397.64) rotate(-.84)"><tspan class="cls-19" x="0" y="0">9</tspan><tspan x="9.14" y="0">2</tspan></text>
    <text class="cls-12" transform="translate(990.97 427.72) rotate(-.84)"><tspan x="0" y="0">91</tspan></text>
    <text class="cls-12" transform="translate(989.69 457.8) rotate(-.84)"><tspan x="0" y="0">90</tspan></text>
    <text class="cls-12" transform="translate(988.4 487.88) rotate(-.84)"><tspan x="0" y="0">89</tspan></text>
    <text class="cls-12" transform="translate(987.1 517.96) rotate(-.84)"><tspan x="0" y="0">88</tspan></text>
    <text class="cls-12" transform="translate(985.82 548.04) rotate(-.84)"><tspan class="cls-18" x="0" y="0">8</tspan><tspan x="9.57" y="0">7</tspan></text>
    <text class="cls-12" transform="translate(984.53 578.12) rotate(-.84)"><tspan x="0" y="0">86</tspan></text>
    <text class="cls-12" transform="translate(983.24 608.19) rotate(-.84)"><tspan x="0" y="0">85</tspan></text>
    <text class="cls-12" transform="translate(981.95 641.27) rotate(-.84)"><tspan x="0" y="0">84</tspan></text>
    <text class="cls-12" transform="translate(980.65 671.69) rotate(-.84)"><tspan x="0" y="0">83</tspan></text>
    <text class="cls-12" transform="translate(979.35 702.12) rotate(-.84)"><tspan x="0" y="0">82</tspan></text>
    <text class="cls-12" transform="translate(978.07 732.2) rotate(-.84)"><tspan x="0" y="0">81</tspan></text>
    <text class="cls-12" transform="translate(976.77 762.28) rotate(-.84)"><tspan x="0" y="0">80</tspan></text>
    <text class="cls-12" transform="translate(975.49 792.36) rotate(-.84)"><tspan x="0" y="0">79</tspan></text>
    <text class="cls-12" transform="translate(974.2 822.44) rotate(-.84)"><tspan x="0" y="0">78</tspan></text>
    <text class="cls-12" transform="translate(973 850.36) rotate(-.84)"><tspan x="0" y="0">77</tspan></text>
    <text class="cls-12" transform="translate(1035.23 851.35) rotate(-.84)"><tspan class="cls-13" x="0" y="0">7</tspan><tspan x="7.66" y="0">6</tspan></text>
    <text class="cls-12" transform="translate(1036.5 821.44) rotate(-.84)"><tspan x="0" y="0">75</tspan></text>
    <text class="cls-12" transform="translate(1037.79 791.57) rotate(-.84)"><tspan class="cls-15" x="0" y="0">7</tspan><tspan x="7.79" y="0">4</tspan></text>
    <text class="cls-12" transform="translate(1039.08 761.4) rotate(-.84)"><tspan x="0" y="0">73</tspan></text>
    <text class="cls-12" transform="translate(1040.37 731.44) rotate(-.84)"><tspan x="0" y="0">72</tspan></text>
    <text class="cls-12" transform="translate(1041.66 701.37) rotate(-.84)"><tspan x="0" y="0">71</tspan></text>
    <text class="cls-12" transform="translate(1042.96 667.82) rotate(-.84)"><tspan class="cls-18" x="0" y="0">7</tspan><tspan class="cls-30" x="8.18" y="0">0</tspan></text>
    <text class="cls-12" transform="translate(1044.26 637.4) rotate(-.84)"><tspan class="cls-9" x="0" y="0">6</tspan><tspan x="9.25" y="0">9</tspan></text>
    <text class="cls-12" transform="translate(1045.55 607.32) rotate(-.84)"><tspan x="0" y="0">68</tspan></text>
    <text class="cls-12" transform="translate(1046.84 577.23) rotate(-.84)"><tspan class="cls-20" x="0" y="0">6</tspan><tspan x="8.88" y="0">7</tspan></text>
    <text class="cls-12" transform="translate(1048.13 547.16) rotate(-.84)"><tspan x="0" y="0">66</tspan></text>
    <text class="cls-12" transform="translate(1049.41 517.07) rotate(-.84)"><tspan x="0" y="0">65</tspan></text>
    <text class="cls-12" transform="translate(1050.71 487) rotate(-.84)"><tspan x="0" y="0">64</tspan></text>
    <text class="cls-12" transform="translate(1051.99 456.91) rotate(-.84)"><tspan x="0" y="0">63</tspan></text>
    <text class="cls-12" transform="translate(1053.28 426.84) rotate(-.84)"><tspan class="cls-7" x="0" y="0">6</tspan><tspan x="9.15" y="0">2</tspan></text>
    <text class="cls-12" transform="translate(1054.56 396.77) rotate(-.84)"><tspan class="cls-5" x="0" y="0">6</tspan><tspan class="cls-26" x="8.82" y="0">1</tspan></text>
    <text class="cls-12" transform="translate(1055.85 366.69) rotate(-.84)"><tspan x="0" y="0">60</tspan></text>
    <text class="cls-12" transform="translate(1057.14 336.6) rotate(-.84)"><tspan x="0" y="0">59</tspan></text>
    <text class="cls-12" transform="translate(1058.43 306.53) rotate(-.84)"><tspan x="0" y="0">58</tspan></text>
    <text class="cls-12" transform="translate(1059.72 276.33) rotate(-.84)"><tspan x="0" y="0">57</tspan></text>
    <text class="cls-12" transform="translate(1136.11 271.62) rotate(-.84)"><tspan x="0" y="0">56</tspan></text>
    <text class="cls-12" transform="translate(1134.8 301.93) rotate(-.84)"><tspan x="0" y="0">55</tspan></text>
    <text class="cls-12" transform="translate(1133.52 332.09) rotate(-.84)"><tspan x="0" y="0">54</tspan></text>
    <text class="cls-12" transform="translate(1132.23 362.2) rotate(-.84)"><tspan x="0" y="0">53</tspan></text>
    <text class="cls-12" transform="translate(1130.94 392.29) rotate(-.84)"><tspan x="0" y="0">52</tspan></text>
    <text class="cls-12" transform="translate(1129.66 422.36) rotate(-.84)"><tspan class="cls-18" x="0" y="0">5</tspan><tspan x="8.75" y="0">1</tspan></text>
    <text class="cls-12" transform="translate(1128.36 452.44) rotate(-.84)"><tspan x="0" y="0">50</tspan></text>
    <text class="cls-12" transform="translate(1129.07 486.51) rotate(-.84)"><tspan class="cls-16" x="0" y="0">4</tspan><tspan x="9.26" y="0">9</tspan></text>
    <text class="cls-12" transform="translate(1127.79 516.6) rotate(-.84)"><tspan x="0" y="0">48</tspan></text>
    <text class="cls-12" transform="translate(1126.51 546.77) rotate(-.84)"><tspan class="cls-20" x="0" y="0">4</tspan><tspan x="8.85" y="0">7</tspan></text>
    <text class="cls-12" transform="translate(1125.22 576.76) rotate(-.84)"><tspan x="0" y="0">46</tspan></text>
    <text class="cls-12" transform="translate(1123.93 606.81) rotate(-.84)"><tspan class="cls-16" x="0" y="0">4</tspan><tspan x="9.26" y="0">5</tspan></text>
    <text class="cls-12" transform="translate(1122.64 637) rotate(-.84)"><tspan x="0" y="0">44</tspan></text>
    <text class="cls-12" transform="translate(1121.35 667.99) rotate(-.84)"><tspan class="cls-11" x="0" y="0">4</tspan><tspan x="9.22" y="0">3</tspan></text>
    <text class="cls-12" transform="translate(1120.06 698.19) rotate(-.84)"><tspan class="cls-36" x="0" y="0">4</tspan><tspan x="9.17" y="0">2</tspan></text>
    <text class="cls-12" transform="translate(1118.77 728.27) rotate(-.84)"><tspan class="cls-20" x="0" y="0">4</tspan><tspan x="8.85" y="0">1</tspan></text>
    <text class="cls-12" transform="translate(1117.49 758.23) rotate(-.84)"><tspan x="0" y="0">40</tspan></text>
    <text class="cls-12" transform="translate(1116.2 788.3) rotate(-.84)"><tspan class="cls-35" x="0" y="0">3</tspan><tspan x="8.72" y="0">9</tspan></text>
    <text class="cls-12" transform="translate(1114.91 818.38) rotate(-.84)"><tspan x="0" y="0">38</tspan></text>
    <text class="cls-12" transform="translate(1113.44 852.81) rotate(-.84)"><tspan x="0" y="0">37</tspan></text>
    <text class="cls-12" transform="translate(1110.9 938.4) rotate(-.84)"><tspan x="0" y="0">36</tspan></text>
    <text class="cls-12" transform="translate(1109.62 968.48) rotate(-.84)"><tspan x="0" y="0">35</tspan></text>
    <text class="cls-12" transform="translate(1108.32 998.55) rotate(-.84)"><tspan x="0" y="0">34</tspan></text>
    <text class="cls-12" transform="translate(1107.03 1028.64) rotate(-.84)"><tspan x="0" y="0">33</tspan></text>
    <text class="cls-12" transform="translate(1105.75 1058.71) rotate(-.84)"><tspan x="0" y="0">32</tspan></text>
    <text class="cls-12" transform="translate(1104.46 1088.79) rotate(-.84)"><tspan x="0" y="0">31</tspan></text>
    <text class="cls-12" transform="translate(1103.22 1117.57) rotate(-.84)"><tspan x="0" y="0">30</tspan></text>
    <text class="cls-12" transform="translate(1101.59 1144.19) rotate(-.84)"><tspan x="0" y="0">29</tspan></text>
    <text class="cls-12" transform="translate(1164.85 1148.8) rotate(-.84)"><tspan x="0" y="0">28</tspan></text>
    <text class="cls-12" transform="translate(1164.14 1121.69) rotate(-.84)"><tspan class="cls-35" x="0" y="0">2</tspan><tspan x="8.83" y="0">7</tspan></text>
    <text class="cls-12" transform="translate(1166.6 1091.64) rotate(-.84)"><tspan x="0" y="0">26</tspan></text>
    <text class="cls-12" transform="translate(1167.89 1061.56) rotate(-.84)"><tspan x="0" y="0">25</tspan></text>
    <text class="cls-12" transform="translate(1169.19 1031.61) rotate(-.84)"><tspan class="cls-16" x="0" y="0">2</tspan><tspan x="8.82" y="0">4</tspan></text>
    <text class="cls-12" transform="translate(1170.47 1001.4) rotate(-.84)"><tspan x="0" y="0">23</tspan></text>
    <text class="cls-12" transform="translate(1171.76 971.44) rotate(-.84)"><tspan x="0" y="0">22</tspan></text>
    <text class="cls-12" transform="translate(1173.05 941.37) rotate(-.84)"><tspan x="0" y="0">21</tspan></text>
    <text class="cls-12" transform="translate(1175.66 853.8) rotate(-.84)"><tspan x="0" y="0">20</tspan></text>
    <text class="cls-12" transform="translate(1177.22 817.5) rotate(-.84)"><tspan x="0" y="0">19</tspan></text>
    <text class="cls-12" transform="translate(1178.51 787.42) rotate(-.84)"><tspan x="0" y="0">18</tspan></text>
    <text class="cls-12" transform="translate(1179.8 757.46) rotate(-.84)"><tspan x="0" y="0">17</tspan></text>
    <text class="cls-12" transform="translate(1181.08 727.26) rotate(-.84)"><tspan x="0" y="0">16</tspan></text>
    <text class="cls-12" transform="translate(1182.36 697.18) rotate(-.84)"><tspan x="0" y="0">15</tspan></text>
    <text class="cls-12" transform="translate(1183.66 667.22) rotate(-.84)"><tspan x="0" y="0">14</tspan></text>
    <text class="cls-12" transform="translate(1184.95 637.02) rotate(-.84)"><tspan x="0" y="0">13</tspan></text>
    <text class="cls-12" transform="translate(1186.23 607.06) rotate(-.84)"><tspan x="0" y="0">12</tspan></text>
    <text class="cls-12" transform="translate(1187.52 576.99) rotate(-.84)"><tspan x="0" y="0">11</tspan></text>
    <text class="cls-12" transform="translate(1188.81 546.79) rotate(-.84)"><tspan x="0" y="0">10</tspan></text>
    <text class="cls-12" transform="translate(1195.84 484.56) rotate(-.84)"><tspan x="0" y="0">8</tspan></text>
    <text class="cls-12" transform="translate(1194.55 514.63) rotate(-.84)"><tspan x="0" y="0">9</tspan></text>
    <text class="cls-12" transform="translate(1197.13 454.48) rotate(-.84)"><tspan x="0" y="0">7</tspan></text>
    <text class="cls-12" transform="translate(1199.42 422.4) rotate(-.84)"><tspan x="0" y="0">6</tspan></text>
    <text class="cls-12" transform="translate(1200.71 392.19) rotate(-.84)"><tspan x="0" y="0">5</tspan></text>
    <text class="cls-12" transform="translate(1202 362.33) rotate(-.84)"><tspan x="0" y="0">4</tspan></text>
    <text class="cls-12" transform="translate(1203.28 332.16) rotate(-.84)"><tspan x="0" y="0">3</tspan></text>
    <text class="cls-12" transform="translate(1204.57 302.2) rotate(-.84)"><tspan x="0" y="0">2</tspan></text>
    <text class="cls-12" transform="translate(1205.97 269.55) rotate(-.84)"><tspan x="0" y="0">1</tspan></text>
  </g>
</svg>