<?xml version="1.0" encoding="UTF-8"?>
<svg id="Capa_1" data-name="Capa 1" xmlns="http://www.w3.org/2000/svg" viewBox="0 0 32 32">
  <defs>
    <style>
      .cls-1 {
        fill: #55b364;
      }
    </style>
  </defs>
  <path class="cls-1" d="m27.97,5.05c-.25,0-.46,0-.66,0-.3-.01-.5-.2-.5-.47,0-.27.19-.46.5-.47.58-.01,1.16-.02,1.73,0,.43,0,.58.16.59.59.01.59,0,1.18,0,1.76,0,.28-.21.47-.47.47-.26,0-.45-.19-.46-.47-.01-.22,0-.45,0-.74-.12.11-.19.18-.27.24-1.34,1.28-2.63,2.61-4.03,3.81-4.18,3.6-9.02,5.84-14.43,6.86-2.32.44-4.65.63-7.01.65-.27,0-.49-.07-.58-.34-.1-.32.14-.58.52-.6.99-.04,1.98-.05,2.96-.12,6.61-.48,12.57-2.65,17.67-6.95,1.52-1.29,2.91-2.73,4.36-4.11.02-.02.03-.05.08-.11Z"/>
  <path class="cls-1" d="m25.4,20.55c0-2.29,0-4.58,0-6.88,0-1,.57-1.57,1.56-1.57.27,0,.55,0,.82,0,.76.02,1.36.61,1.37,1.37.01,1.09,0,2.17,0,3.26,0,.32-.18.53-.46.54-.28,0-.48-.21-.48-.55,0-1.02,0-2.04,0-3.06,0-.48-.15-.63-.64-.63-.24,0-.49,0-.73,0-.33,0-.5.18-.51.52,0,.06,0,.12,0,.18,0,4.55,0,9.11,0,13.66,0,.56.13.69.69.69.21,0,.41,0,.62,0,.4,0,.57-.17.57-.57,0-1.23,0-2.47,0-3.7,0-.88,0-1.76,0-2.64,0-.39.18-.61.48-.6.29,0,.46.22.46.6,0,2.13,0,4.25,0,6.38,0,.9-.6,1.48-1.5,1.49-.24,0-.49,0-.73,0-.95,0-1.53-.58-1.53-1.55,0-2.31,0-4.62,0-6.93Z"/>
  <path class="cls-1" d="m23.52,22.46c0,1.83,0,3.66,0,5.49,0,.97-.58,1.54-1.56,1.55-.26,0-.53,0-.79,0-.79-.02-1.41-.61-1.41-1.4,0-3.77,0-7.54,0-11.31,0-.79.62-1.38,1.41-1.4.3,0,.61,0,.91,0,.84,0,1.44.61,1.44,1.45,0,1.87,0,3.74,0,5.61Zm-2.82-.01c0,1.84,0,3.68,0,5.53,0,.42.17.58.59.59.21,0,.41,0,.62,0,.54,0,.68-.14.68-.68,0-3.24,0-6.49,0-9.73,0-.43,0-.86,0-1.29,0-.35-.18-.52-.53-.53-.24,0-.47,0-.71,0-.5,0-.65.15-.65.65,0,1.82,0,3.64,0,5.47Z"/>
  <path class="cls-1" d="m12.23,9.14c0,2.65-2.06,4.69-4.76,4.69-2.56,0-4.63-2.09-4.64-4.7,0-2.63,2.06-4.69,4.68-4.68,2.71.01,4.72,2.01,4.72,4.69Zm-.93.01c0-2.08-1.66-3.76-3.73-3.77-2.07,0-3.8,1.69-3.8,3.76,0,2.07,1.69,3.76,3.75,3.77,2.1,0,3.78-1.66,3.79-3.75Z"/>
  <path class="cls-1" d="m14.11,23.83c0-1.34,0-2.68,0-4.02,0-1.03.56-1.59,1.6-1.59.21,0,.41,0,.62,0,.96,0,1.54.58,1.54,1.53,0,2.53,0,5.05,0,7.58,0,.24,0,.49,0,.73-.01.83-.6,1.43-1.43,1.44-.3,0-.61,0-.91,0-.82-.01-1.42-.62-1.42-1.44,0-1.41,0-2.82,0-4.23Zm2.82.04c0-1.37,0-2.74,0-4.11,0-.44-.16-.6-.61-.6-.24,0-.49,0-.73,0-.36,0-.53.18-.54.55,0,.39,0,.78,0,1.18,0,2.35,0,4.7,0,7.05,0,.48.15.63.64.63.21,0,.41,0,.62,0,.48,0,.63-.15.63-.64,0-1.35,0-2.7,0-4.06Z"/>
  <path class="cls-1" d="m12.23,25.26c0,.91,0,1.82,0,2.73,0,.92-.59,1.5-1.51,1.51-.29,0-.59,0-.88,0-.76-.02-1.36-.62-1.37-1.37-.01-1.9,0-3.8,0-5.7,0-.77.62-1.37,1.39-1.39.32,0,.65,0,.97,0,.79.02,1.39.62,1.4,1.4,0,.94,0,1.88,0,2.82Zm-.94.03c0-.92,0-1.84,0-2.76,0-.37-.17-.54-.54-.55-.27,0-.55,0-.82,0-.33,0-.52.18-.52.51,0,1.85,0,3.7,0,5.55,0,.34.19.51.54.52.24,0,.49,0,.73,0,.44,0,.61-.16.61-.6,0-.89,0-1.78,0-2.67Z"/>
  <path class="cls-1" d="m2.83,26.65c0-.45,0-.9,0-1.35,0-.82.61-1.43,1.42-1.44.31,0,.63,0,.94,0,.77.02,1.38.61,1.39,1.38.01.96.01,1.92,0,2.88-.01.77-.62,1.36-1.39,1.38-.32,0-.65,0-.97,0-.79-.02-1.38-.62-1.39-1.41,0-.48,0-.96,0-1.44Zm2.82.05c0-.46,0-.92,0-1.38,0-.33-.18-.51-.5-.52-.29,0-.59,0-.88,0-.31,0-.49.19-.49.5,0,.92,0,1.84,0,2.76,0,.31.19.48.5.49.28,0,.57,0,.85,0,.34,0,.52-.18.52-.53,0-.44,0-.88,0-1.32Z"/>
  <path class="cls-1" d="m29.16,18.94c0,.1.02.2,0,.29-.05.24-.2.38-.45.39-.26,0-.43-.14-.47-.4-.03-.18-.02-.37,0-.56.02-.26.21-.44.46-.45.26,0,.45.18.48.46,0,.09,0,.18,0,.26,0,0,0,0,0,0Z"/>
  <path class="cls-1" d="m7.71,8.86c-.4-.11-.73-.24-.73-.52s.28-.45.7-.45c.35,0,.66.11.95.26.08.05.14.03.18-.05l.22-.46c.04-.08.02-.14-.04-.19-.24-.14-.55-.28-.91-.34v-.48c0-.09-.05-.13-.13-.13h-.69c-.09,0-.13.04-.13.13v.5c-.67.15-1.1.61-1.1,1.24,0,.78.56,1.06,1.1,1.22.54.17,1.07.29,1.07.69,0,.27-.3.44-.76.44-.38,0-.74-.12-1.08-.32-.07-.05-.14-.03-.18.05l-.23.48c-.04.08-.02.14.04.18.31.2.71.34,1.11.4v.47c0,.09.04.13.13.13h.69c.09,0,.14-.04.14-.13v-.51c.67-.16,1.07-.62,1.07-1.25,0-.94-.8-1.17-1.41-1.36Z"/>
</svg>