<?xml version="1.0" encoding="UTF-8"?>
<svg id="Capa_1" data-name="Capa 1" xmlns="http://www.w3.org/2000/svg" viewBox="0 0 32 32">
  <defs>
    <style>
      .cls-1 {
        fill: #55b364;
      }
    </style>
  </defs>
  <path class="cls-1" d="m9.3,4.71c0-.62.14-1.19.71-1.41.49-.19,1.05-.19,1.65-.29,0-.15,0-.36,0-.57.01-.71.51-1.23,1.21-1.24,1.27-.01,2.54-.01,3.81,0,.72,0,1.21.49,1.25,1.21.01.22,0,.43,0,.69.25,0,.47.02.68,0,.93-.09,1.68.45,1.67,1.59.11,0,.23.02.34.02,1.36,0,2.71,0,4.07,0,.53,0,.68.15.68.69,0,4.02,0,8.03,0,12.05,0,.26.06.4.32.51,2.74,1.16,4.65,4.01,4.26,7.29-.4,3.35-2.85,5.82-6.08,6.26-1.75.24-3.37-.13-4.85-1.09-.15-.1-.28-.19-.47-.09-.1.05-.24.03-.36.03-4.41,0-8.82,0-13.23,0-.61,0-.73-.12-.73-.73,0-8.06,0-16.13,0-24.19,0-.59.12-.72.71-.72,1.32,0,2.65,0,3.97,0,.12,0,.24,0,.4,0Zm-2.13,22.67h9.2c-.15-.49-.31-.96-.41-1.43-.1-.48-.14-.97-.21-1.49-.09,0-.2,0-.31,0-.67,0-1.33,0-2,0-.31,0-.51-.2-.51-.48,0-.26.19-.44.5-.46.13,0,.26,0,.39,0,.67,0,1.35,0,2.04,0,.14-1.07.53-2.03,1.1-2.97-.19,0-.31,0-.43,0-1,0-1.99,0-2.99,0-.18,0-.4-.08-.51-.2-.09-.1-.11-.36-.03-.47.08-.13.29-.25.45-.25,1.28-.02,2.56-.01,3.84-.01.04,0,.1,0,.13.01.18.11.29.01.42-.11.99-1.01,2.19-1.66,3.57-1.96.33-.07.66-.11.99-.17V7.68h-2.13c-.07.86-.09.88-.95.88-3.05,0-6.1,0-9.15,0-.77,0-.83-.05-.88-.82,0-.02-.02-.04-.03-.06h-2.09v19.71Zm15.74-9.04c-3.04-.12-6.18,2.45-6.17,6.16.02,3.41,2.79,6.15,6.19,6.13,3.39-.02,6.14-2.82,6.11-6.22-.03-3.36-2.8-6.1-6.13-6.07Zm-6.02,9.97c-.18.01-.35.03-.52.03-3.16,0-6.32,0-9.48,0-.56,0-.69-.13-.69-.69,0-2.78,0-5.56,0-8.34,0-3.98,0-7.96,0-11.95,0-.52.14-.66.66-.66.51,0,1.03,0,1.54,0,.29,0,.58,0,.87,0v-1.01h-4.1v23.66h12.53c-.29-.37-.56-.71-.82-1.05ZM10.27,7.58h9.05c0-1.05,0-2.07,0-3.1,0-.24-.14-.41-.38-.42-.32-.02-.65,0-1.01,0,0,.2,0,.38,0,.55-.02.32-.18.49-.49.49-1.76,0-3.52,0-5.28,0-.31,0-.48-.18-.49-.49,0-.18,0-.36,0-.56-.35,0-.65,0-.94,0-.26,0-.44.14-.44.42,0,1.03,0,2.05,0,3.1Zm10.01-.87c.8,0,1.57,0,2.34,0,.65,0,.75.1.75.74,0,3.17,0,6.35,0,9.52,0,.09-.02.18,0,.26.02.07.08.16.14.17.28.05.57.08.86.11V5.69h-4.1v1.02Zm-7.68-2.57h4.38c0-.57,0-1.12,0-1.66,0-.23-.13-.33-.35-.33-1.22,0-2.45,0-3.67,0-.21,0-.34.1-.35.31,0,.55,0,1.11,0,1.69Z"/>
  <path class="cls-1" d="m16.73,16.64c-1.06,0-2.12,0-3.18,0-.25,0-.46-.05-.57-.3-.11-.26.02-.55.3-.63.12-.03.26-.04.39-.04,2.06,0,4.11,0,6.17,0,.09,0,.18,0,.26,0,.27.03.44.18.46.47.01.26-.18.47-.48.48-.29.02-.59,0-.89,0-.82,0-1.64,0-2.46,0Z"/>
  <path class="cls-1" d="m16.73,12.71c-1.08,0-2.16,0-3.25,0-.41,0-.66-.31-.5-.63.07-.14.29-.29.45-.29,2.21-.02,4.42-.01,6.62-.01.3,0,.49.19.49.46,0,.28-.19.47-.51.47-1.1,0-2.21,0-3.31,0Z"/>
  <path class="cls-1" d="m10.12,11.98c.38-.39.71-.74,1.05-1.08.27-.27.53-.29.74-.08.21.21.19.48-.07.75-.43.44-.86.87-1.3,1.3-.31.3-.53.3-.84,0-.17-.17-.35-.33-.51-.51-.22-.24-.23-.51-.03-.7.19-.19.47-.18.7.03.08.07.14.17.26.3Z"/>
  <path class="cls-1" d="m10.09,23.73c.39-.4.72-.74,1.06-1.08.28-.28.56-.3.77-.08.2.21.17.48-.09.75-.43.44-.86.87-1.3,1.3-.29.28-.53.28-.82,0-.18-.18-.36-.35-.53-.53-.2-.22-.21-.49-.03-.67.19-.19.48-.19.7.02.09.08.15.19.24.31Z"/>
  <path class="cls-1" d="m10.09,15.91c.41-.42.74-.77,1.08-1.11.25-.25.55-.27.74-.06.2.21.18.47-.07.72-.44.44-.87.89-1.32,1.32-.29.29-.52.28-.82,0-.18-.17-.36-.35-.53-.53-.2-.22-.21-.48-.03-.67.19-.21.46-.21.7.01.09.08.15.19.25.33Z"/>
  <path class="cls-1" d="m10.15,19.78c.36-.37.68-.72,1.02-1.06.27-.27.53-.29.74-.07.21.21.18.48-.08.75-.43.44-.86.87-1.3,1.3-.3.3-.52.3-.82.01-.18-.17-.36-.35-.53-.53-.22-.23-.22-.51-.02-.7.19-.18.45-.18.68.02.09.08.17.16.31.29Z"/>
  <path class="cls-1" d="m21.66,24.48c0-.75.67-1.35,1.42-1.22.23.04.38,0,.54-.17.35-.38.72-.73,1.09-1.09.27-.27.53-.29.74-.07.2.21.18.48-.08.75-.38.39-.78.77-1.15,1.17-.08.08-.1.24-.11.36-.01.12.06.25.02.35-.14.36.07.56.3.78.43.41.85.85,1.28,1.27.26.26.29.54.09.75-.2.21-.5.19-.77-.09-.49-.48-.98-.97-1.46-1.46-.13-.13-.24-.17-.43-.13-.75.16-1.46-.43-1.47-1.2Zm1.62-.02c-.18-.12-.31-.27-.39-.25-.11.03-.19.18-.28.28.1.08.19.23.29.23.1,0,.2-.14.37-.27Z"/>
  <path class="cls-1" d="m27.41,24.93c-.2,0-.39.01-.59,0-.27-.02-.41-.2-.42-.46,0-.26.15-.45.41-.47.4-.02.81-.02,1.21,0,.26.01.42.2.42.46,0,.27-.16.45-.44.47-.2.01-.39,0-.59,0h0Z"/>
  <path class="cls-1" d="m23.36,29.01c0,.19,0,.37,0,.56-.02.29-.19.44-.46.46-.26.02-.46-.19-.47-.48-.01-.37-.01-.74,0-1.11.01-.28.18-.45.46-.45.28,0,.45.15.47.44.01.2,0,.39,0,.59Z"/>
  <path class="cls-1" d="m22.42,19.94c0-.19-.01-.37,0-.56.02-.28.17-.45.46-.45.28,0,.46.15.47.43.02.39.01.79,0,1.18-.01.27-.19.42-.45.43-.28,0-.45-.16-.48-.44-.02-.19,0-.39,0-.59,0,0,0,0,0,0Z"/>
  <path class="cls-1" d="m18.36,24.93c-.2,0-.39.01-.59,0-.27-.02-.41-.19-.42-.46,0-.27.15-.45.41-.46.4-.03.81-.02,1.21,0,.26.01.42.2.42.46,0,.28-.16.45-.44.47-.2.01-.39,0-.59,0h0Z"/>
</svg>