<?xml version="1.0" encoding="UTF-8"?>
<svg id="Capa_1" data-name="Capa 1" xmlns="http://www.w3.org/2000/svg" viewBox="0 0 32 32">
  <defs>
    <style>
      .cls-1 {
        fill: #55b364;
      }
    </style>
  </defs>
  <path class="cls-1" d="m30.92,24.48H1.75v-5.64h1.84v-5.69c-.23,0-.47.03-.7,0-.6-.11-.98-.48-1.12-1.08-.13-.57.05-1.06.51-1.41.37-.29.75-.55,1.13-.81.16-.1.2-.22.2-.4,0-.94,0-1.88,0-2.84h2.82v1.05c.11-.07.18-.11.25-.15.58-.41,1.16-.83,1.74-1.24,1.16-.83,2.41-.83,3.57,0,1.36.97,2.72,1.94,4.08,2.92.19.14.31.15.51,0,1.35-.98,2.72-1.95,4.07-2.92,1.16-.83,2.4-.83,3.57-.01.64.45,1.28.91,1.97,1.41v-1.08c.5,0,.97,0,1.43,0s.91,0,1.41,0c0,.11,0,.21,0,.31,0,.86,0,1.71,0,2.57,0,.17.05.28.19.37.26.16.49.36.75.52.44.28.79.62.95,1.12v.57c-.22.6-.59,1.04-1.26,1.12-.2.02-.4-.01-.61-.02v5.69h1.86v5.64Zm-15.47-12.26c-.09-.08-.13-.11-.17-.14-1.63-1.17-3.26-2.33-4.89-3.5-.16-.12-.26-.07-.39.03-1.74,1.24-3.47,2.49-5.22,3.72-.17.12-.22.25-.22.45,0,1.91,0,3.82,0,5.73,0,.1,0,.2.01.31h2.35v-4.68h6.58v4.68h.96v-6.59h.99Zm12.62,6.6s.02-.08.02-.12c0-2.01,0-4.03,0-6.04,0-.09-.08-.21-.15-.27-1.77-1.28-3.55-2.54-5.32-3.82-.12-.09-.21-.08-.32,0-1.18.85-2.36,1.69-3.54,2.54-.07.05-.12.21-.11.3.09.47,0,.88-.28,1.26-.08.11-.14.27-.14.4,0,1.82,0,3.65,0,5.47,0,.09,0,.18.01.28h.93v-4.69h6.58v4.69h2.33Zm-15.52,0v-3.73h-4.68v3.73h4.68Zm7.57-3.74v3.74h4.67v-3.74h-4.67Zm9.84,8.44v-1.84h-10.2c.27.21.64.42.88.73.24.31.34.72.51,1.11h8.82Zm-27.26,0h8.91c.08-.91.55-1.52,1.4-1.85H2.69v1.85Zm15.05-11.86c-.08-.09-.2-.28-.37-.39-1.97-1.41-3.94-2.82-5.91-4.23-.86-.61-1.66-.61-2.52,0-1.97,1.41-3.94,2.81-5.91,4.22-.07.05-.14.1-.2.16-.17.17-.2.44-.06.62.16.2.36.24.58.14.09-.04.16-.1.24-.15,1.96-1.4,3.91-2.79,5.86-4.19.58-.41.92-.41,1.5,0,1.94,1.39,3.88,2.77,5.82,4.16.09.07.18.14.28.19.31.15.67-.07.68-.52Zm-.48,9.51c0-.19.01-.35,0-.51-.04-.52-.43-.89-.93-.9-.51,0-.91.38-.95.91-.01.16,0,.32,0,.5-.43,0-.82-.03-1.13.27-.33.31-.27.73-.29,1.09-.33.06-.65.08-.93.19-.31.13-.46.42-.48.79h7.53c-.12-.86-.72-.97-1.41-.92-.01-.42.04-.82-.27-1.13-.32-.32-.72-.28-1.15-.29Zm.68-10.66c1.25-.89,2.5-1.78,3.74-2.67.6-.43.92-.43,1.52,0,1.92,1.37,3.83,2.74,5.75,4.11.06.04.12.09.19.13.3.21.58.19.75-.05.16-.23.09-.5-.19-.71-2.04-1.46-4.07-2.92-6.12-4.37-.73-.52-1.57-.5-2.31.03-1.31.94-2.63,1.88-3.94,2.82-.06.04-.11.09-.18.15.28.2.53.38.79.56Zm-1.64,6.43v.94h-.91v1.18c.63-.32,1.24-.3,1.84-.01v-3.07h-.9v-.92h.91v-1.87h-1.85v3.75h.91Zm-4.2,3.77c.51,0,1,0,1.49,0,.04,0,.07-.01.11-.03.24-.14.48-.28.73-.42v-.48h-2.32v.93Zm8.43,0v-.93h-2.34c.01.18-.04.43.05.5.24.18.53.37.82.41.48.07.98.02,1.47.02ZM4.57,8.98c.89-.5,1.04-.75.88-1.43h-.88v1.43Zm23.5.03v-1.45h-.92c0,.24,0,.45,0,.67,0,.06.04.15.09.19.25.19.52.37.83.59Zm-18.83,11.69v-.91h-.91v.91h.91Zm.98,0h.9v-.92h-.9v.92Zm-2.86,0v-.92h-.9v.92h.9Zm-4.67,0h.9v-.91h-.9v.91Zm18.83-.91v.91h.89v-.91h-.89Zm2.78,0h-.9v.91h.9v-.91Zm1.88.92v-.91h-.9v.91h.9Zm1.88,0v-.92h-.9v.92h.9Zm.98-.02h.91v-.89h-.91v.89Zm-24.48-.9v.92h.9v-.92h-.9Z"/>
  <path class="cls-1" d="m11.61,10.83c0,.79-.62,1.41-1.4,1.41-.78,0-1.41-.62-1.41-1.4,0-.78.62-1.41,1.4-1.41.79,0,1.41.62,1.41,1.4Zm-.94.01c0-.25-.21-.47-.46-.48-.25,0-.47.21-.48.46,0,.25.21.47.46.48.25,0,.47-.22.48-.47Z"/>
  <path class="cls-1" d="m23.85,10.82c0,.78-.62,1.41-1.4,1.41-.79,0-1.41-.61-1.41-1.4,0-.79.62-1.41,1.4-1.41.78,0,1.41.62,1.41,1.4Zm-.94.01c0-.25-.21-.47-.46-.48-.25,0-.47.22-.48.47,0,.25.22.47.47.48.25,0,.47-.21.47-.47Z"/>
</svg>