<svg width="32" height="32" viewBox="0 0 32 32" fill="none" xmlns="http://www.w3.org/2000/svg">
    <g clip-path="url(#a)">
        <path d="M0 16C0 7.163 7.163 0 16 0s16 7.163 16 16-7.163 16-16 16S0 24.837 0 16z" fill="#fff"/>
        <path fill="#006845" d="M0 0h10v32H0z"/>
        <path fill="#FE313D" d="M22.439 0h10v32h-10z"/>
        <path d="m17.721 16.527-1.28.688v.689h.64l.64-1.377z" fill="#FFD250"/>
        <path d="M16.443 19.624c-.177 0-.32-.154-.32-.344v-1.376c0-.19.143-.344.32-.344.177 0 .32.154.32.344v1.376c0 .19-.143.344-.32.344z" fill="#00C3A0"/>
        <path d="M16.442 18.248c-1.257 0-2.47-.522-3.418-1.469a.362.362 0 0 1-.016-.486.306.306 0 0 1 .452-.018c.828.829 1.888 1.285 2.982 1.285 1.095 0 2.155-.456 2.983-1.285a.305.305 0 0 1 .452.018c.12.14.113.357-.016.486-.948.947-2.162 1.469-3.419 1.469z" fill="#00C3A0"/>
        <path d="M16.44 19.624c-.82 0-1.614-.258-2.298-.746l.355-.573a3.363 3.363 0 0 0 3.888 0l.354.573a3.938 3.938 0 0 1-2.298.746z" fill="#00AADC"/>
        <path d="m15.934 14.98-.706 1.175-.12.387 1.84-.459-1.014-1.104z" fill="#732D37"/>
        <path d="M14.48 16.92c-.846 0-1.862-.766-2.131-2.47l.631-.116c.224 1.418 1.036 1.899 1.523 1.898.15-.005.305-.06.318-.174.014-.136.017-.168-.317-.29-.182-.066-.388-.14-.533-.319-.586-.718.207-1.479.588-1.844.067-.065.095-.12.088-.14-.021-.06-.147-.148-.289-.148a.792.792 0 0 1-.804-.644c-.094-.412.082-.845.418-1.031l.293.611c-.078.044-.11.168-.09.257.009.036.028.119.184.119.392 0 .764.248.886.59.052.146.13.525-.26.899-.42.404-.672.707-.532.878.031.039.167.088.256.12.288.105.825.3.748 1.02-.049.454-.425.769-.936.784h-.041z" fill="#AAD264"/>
        <path d="M17.081 13.087s.64-1.376-.64-2.064c0 0 4.48-.688 3.84 5.505-.42-.362-1.044-1.022-1.266-1.549l-1.934-1.204v-.688z" fill="#874150"/>
        <path d="m16.44 14.463 3.201 2.065-1.28.688-1.92-2.065v-.688z" fill="#732D37"/>
        <path d="M15.161 12.399c.354 0 .64.308.64.688a1.425 1.425 0 0 0-.235 1.558l.144.31c.06.13.14.249.235.351l1.777 1.91v-.951a8.103 8.103 0 0 0-.75-3.413c-.325-.7-.99-1.141-1.717-1.141h-.094v.688z" fill="#783C46"/>
        <path d="m15.158 11.71-.64.689v.688s.76-.415 1.017-.547c.18-.093.147-.311.044-.417-.08-.082-.421-.413-.421-.413z" fill="#FFD250"/>
        <path d="M16.44 21c-3 0-5.44-2.624-5.44-5.849h.64c0 2.846 2.154 5.161 4.8 5.161 2.648 0 4.802-2.315 4.802-5.16h.64c0 3.224-2.441 5.848-5.441 5.848z" fill="#AAD264"/>
        <path d="M11.674 17.66c.24 0 .434-.21.434-.467 0-.258-.194-.467-.434-.467s-.434.21-.434.467c0 .258.194.467.434.467zM12.635 19.309c.24 0 .434-.21.434-.467 0-.258-.194-.467-.434-.467s-.434.21-.434.467c0 .258.194.467.434.467zM14.19 20.555c.24 0 .435-.21.435-.467 0-.258-.195-.467-.434-.467-.24 0-.435.209-.435.467s.195.467.434.467zM21.25 17.66c.24 0 .434-.21.434-.467 0-.258-.195-.467-.434-.467-.24 0-.435.21-.435.467 0 .258.195.467.435.467zM20.295 19.309c.24 0 .434-.21.434-.467 0-.258-.194-.467-.434-.467s-.435.21-.435.467c0 .258.195.467.435.467zM18.732 20.555c.24 0 .435-.209.435-.466 0-.258-.195-.467-.435-.467s-.434.209-.434.466c0 .258.194.467.434.467z" fill="#FFE15A"/>
        <path d="M16.761 19.968h-.64c-.353 0-.64-.308-.64-.688 0-.38.287-.688.64-.688h.64c.354 0 .64.308.64.688 0 .38-.286.688-.64.688z" fill="#FFB478"/>
        <path d="M19.015 14.98c.213.673.666 1.29 1.266 1.547.64-6.192-3.84-5.504-3.84-5.504 3.2 0 2.574 3.956 2.574 3.956z" fill="#9B4B5A"/>
    </g>
    <defs>
        <clipPath id="a">
            <path d="M0 16C0 7.163 7.163 0 16 0s16 7.163 16 16-7.163 16-16 16S0 24.837 0 16z" fill="#fff"/>
        </clipPath>
    </defs>
</svg>